<svg xmlns="http://www.w3.org/2000/svg" xmlns:xlink="http://www.w3.org/1999/xlink" viewBox="0 0 590.12 539.72"><defs><style>.cls-1{fill:url(#linear-gradient);}.cls-2{fill:url(#linear-gradient-2);}.cls-3{fill:url(#linear-gradient-3);}.cls-4{fill:url(#linear-gradient-4);}.cls-5{fill:url(#linear-gradient-5);}.cls-6{fill:url(#linear-gradient-6);}.cls-7{fill:url(#linear-gradient-7);}.cls-8{fill:url(#linear-gradient-8);}.cls-9{fill:url(#linear-gradient-9);}.cls-10{fill:url(#linear-gradient-10);}.cls-11{fill:url(#linear-gradient-11);}</style><linearGradient id="linear-gradient" x1="351.11" y1="-88.54" x2="507.31" y2="503.64" gradientUnits="userSpaceOnUse"><stop offset="0" stop-color="#00c3ff"/><stop offset="0.13" stop-color="#00bafa"/><stop offset="0.35" stop-color="#00a1ed"/><stop offset="0.63" stop-color="#0079d8"/><stop offset="0.95" stop-color="#0042ba"/><stop offset="1" stop-color="#003ab6"/></linearGradient><linearGradient id="linear-gradient-2" x1="196.4" y1="-47.73" x2="352.6" y2="544.45" xlink:href="#linear-gradient"/><linearGradient id="linear-gradient-3" x1="85.96" y1="477.55" x2="92.18" y2="477.55" xlink:href="#linear-gradient"/><linearGradient id="linear-gradient-4" x1="50.33" y1="-9.2" x2="206.53" y2="582.98" xlink:href="#linear-gradient"/><linearGradient id="linear-gradient-5" x1="596.35" y1="386.23" x2="15.7" y2="386.23" gradientUnits="userSpaceOnUse"><stop offset="0" stop-color="#4225a3"/><stop offset="1" stop-color="#c696d2"/></linearGradient><linearGradient id="linear-gradient-6" x1="328.04" y1="443.16" x2="338.91" y2="443.16" xlink:href="#linear-gradient"/><linearGradient id="linear-gradient-7" x1="384.93" y1="15.72" x2="618.07" y2="584.58" xlink:href="#linear-gradient"/><linearGradient id="linear-gradient-8" x1="230.23" y1="79.12" x2="463.37" y2="647.98" xlink:href="#linear-gradient"/><linearGradient id="linear-gradient-9" x1="93.34" y1="135.23" x2="326.48" y2="704.09" xlink:href="#linear-gradient"/><linearGradient id="linear-gradient-10" x1="528.92" y1="358.45" x2="55.44" y2="358.45" xlink:href="#linear-gradient-5"/><linearGradient id="linear-gradient-11" x1="396.23" y1="338.83" x2="590.12" y2="338.83" xlink:href="#linear-gradient-5"/></defs><g id="Layer_2" data-name="Layer 2"><g id="Layer_1-2" data-name="Layer 1"><path class="cls-1" d="M475.89,0V290.26a173.5,173.5,0,0,1-17.49,26.42c-9.33,12.82-20.59,24.48-33,35.36-15.15,13.6-31.86,25.65-49.74,36.92V100.25A100,100,0,0,1,475.89,0Z"/><path class="cls-2" d="M330.75,93.06V412.85a500.76,500.76,0,0,1-50.12,20.59c-17.1,6.22-33.8,11.66-50.12,16.71V193.31c0-55.17,44.68-99.47,99.47-100.25Z"/><path class="cls-3" d="M86,476.58c1.94.38,3.88,1.16,6.22,1.55-3.89.39-6.22.39-6.22.39Z"/><path class="cls-4" d="M186.21,177V461.42c-6.6,1.56-13.21,3.11-19.43,4.28-4.66.39-9.32.39-13.6.39-26.42-.39-49.35-4.28-67.22-11.27V277.24c0-54.79,44.69-99.86,99.47-100.25Z"/><path class="cls-5" d="M584.29,247.91v.38L550.88,361a308.1,308.1,0,0,1-37.3,37.3c-.39.39-.39.39-.78.39v.39c-8.94,7.38-18.65,15.15-28.75,22.53-29.15,21-63,40.8-100.26,58.29-5.82,2.33-10.88,5.05-16.7,7a143.5,143.5,0,0,1-21,9.33h-.77C272.28,525,200.78,539.33,142.11,539.72h-2.73a47,47,0,0,1-7.77-.39C66.34,537.39,18.54,518,4.55,481.43c-11.26-28.75-1.16-62.95,25.26-98.69C23.2,401,22,418.1,27.87,432.86c8.55,21.37,28.75,35.75,57.9,43.91a23.23,23.23,0,0,1,6.6,1.55c.78,0,.78.39,1.55.39,21,5.06,46.24,6.22,73.83,4.67,8.16-.39,17.1-1.56,26.43-2.34,8.93-1.55,17.87-2.33,27.58-4.27a134.76,134.76,0,0,1,17.1-3.5c15.54-3.88,32.64-8.55,49-13.6H289c12-4.27,25.25-8.16,37.3-13.6.38-.39,1.55-.39,1.94-.77a106.13,106.13,0,0,0,10.1-3.5c0-.78.39-.78.39-1.17a169.76,169.76,0,0,0,24.48-10.1c6.61-3.11,14-7,20.59-10.1,10.11-5.05,19.43-10.88,28.76-16.71,7-4.28,14-8.94,21-13.6v-.39c2.72-1.94,6.22-3.5,8.94-5.44,5.83-4.66,12.43-8.94,18.26-13.6.78-.78,1.55-.78,1.94-1.55a263.31,263.31,0,0,0,21.38-18.66c5-4.66,10.1-9.71,14.37-14.37a182.74,182.74,0,0,0,19.82-24.48v-.39c16.71-24.09,23.7-46.63,20.2-66.83l35.75-11.66A64,64,0,0,1,584.29,247.91Z"/><path class="cls-6" d="M328,445.49c3.88-1.16,7.38-3.11,10.87-4.66,0,.39-.39.39-.39.78C335,443.16,331.53,444.33,328,445.49Z"/><path class="cls-7" d="M475.89,0V290.26a173.5,173.5,0,0,1-17.49,26.42c-9.33,12.82-20.59,24.48-33,35.36V119.29C425.37,21,475.89,0,475.89,0Z"/><path class="cls-8" d="M330.75,93.06V412.85a500.76,500.76,0,0,1-50.12,20.59V256.65C280.63,105.88,323,94.23,330,93.06Z"/><path class="cls-9" d="M186.21,177V461.42c-6.6,1.56-13.21,3.11-19.43,4.28-4.66.39-9.32.39-13.6.39a275.45,275.45,0,0,1-10.49-45.47c-3.89-23.7-6.61-53.62-6.61-90.14,0-141.83,42.75-152.71,49.35-153.49Z"/><path class="cls-10" d="M519,250.63c1.17,23.31-11.65,50.12-35.74,76.54-13.22,14.77-30.31,29.53-49.74,43.52-22.92,17.1-50.52,33-80.82,47.41-4.66,1.94-8.55,4.27-14,5.44a89.35,89.35,0,0,1-16.32,7c-.39,0-.78.39-1.16.39-54.79,21.76-109.19,33.42-154.65,34.58a79.69,79.69,0,0,1-13.21.78c-26.81-.78-49.74-4.27-67.61-11.66-19.43-7.77-33-19.43-39.25-35.75C37.19,396.34,45,368,66.73,339.22c-5.06,14.37-6.61,28.36-1.17,40.41,3.5,9.71,10.49,17.87,20.21,24.09q13.4,8.75,32.63,12.82a156.7,156.7,0,0,0,24.09,4.28c11.27.38,22.93.38,35.75,0A58,58,0,0,0,186,420a139.88,139.88,0,0,1,14-1.56c7-.77,14-1.94,21.76-3.1a33.17,33.17,0,0,1,8.94-1.95,31.86,31.86,0,0,0,5.05-.77c12.82-3.5,26.43-6.61,39.63-11.27h.78a8.62,8.62,0,0,0,4.28-1.95c8.93-2.72,17.48-5.43,26-8.54.39-.78.78-.78,1.17-1.17,2.72-.39,5.82-1.94,8.54-3.11h.39c4.67-2.33,9.72-4.27,14-6.6a11.35,11.35,0,0,0,5.44-1.95,164.56,164.56,0,0,1,16.71-8.16c7.77-4.66,15.16-8.93,22.54-12.82a.38.38,0,0,1,.38-.39c6.22-3.88,11.66-7.77,17.49-11.26,1.16-.78,1.94-2.34,3.5-2.72,5.43-3.89,9.71-7,14.76-10.89a6,6,0,0,0,3.11-2.33,4.17,4.17,0,0,0,1.95-1.16c3.1-2.33,6.21-4.67,8.93-7l.39-.38c2.72-2.34,5.44-5.06,7.77-7.39l5.05-5.05a141.21,141.21,0,0,0,10.88-11.27q15.74-18.06,23.32-31.47c1.16-1.94,1.94-3.89,2.72-5.44,0-.39.39-.39.39-.78v5.05Z"/><polygon class="cls-11" points="590.12 227.7 584.29 247.91 584.29 248.29 550.88 360.98 524.46 449.96 512.8 399.06 512.8 398.67 498.42 336.11 498.03 333.39 483.27 327.17 458.4 316.68 438.58 308.52 425.37 302.69 396.23 290.65 425.37 281.32 472.78 265.78 475.89 264.61 519.01 250.63 538.44 244.41 574.19 232.75 590.12 227.7"/></g></g></svg>