<?xml version="1.0" encoding="UTF-8" standalone="no"?>
<svg
   width="201.58644"
   height="42.703949"
   viewBox="0 0 201.58644 42.703949"
   fill="none"
   version="1.1"
   id="svg10"
   sodipodi:docname="logo.svg"
   inkscape:version="1.2.2 (732a01da63, 2022-12-09)"
   xmlns:inkscape="http://www.inkscape.org/namespaces/inkscape"
   xmlns:sodipodi="http://sodipodi.sourceforge.net/DTD/sodipodi-0.dtd"
   xmlns:xlink="http://www.w3.org/1999/xlink"
   xmlns="http://www.w3.org/2000/svg"
   xmlns:svg="http://www.w3.org/2000/svg">
  <defs
     id="defs14">
    <linearGradient
       inkscape:collect="always"
       xlink:href="#linear-gradient"
       id="linearGradient543"
       gradientUnits="userSpaceOnUse"
       x1="351.10999"
       y1="-88.540001"
       x2="507.31"
       y2="503.64001" />
    <linearGradient
       id="linear-gradient"
       x1="351.10999"
       y1="-88.540001"
       x2="507.31"
       y2="503.64001"
       gradientUnits="userSpaceOnUse">
      <stop
         offset="0"
         stop-color="#00c3ff"
         id="stop336" />
      <stop
         offset="0.13"
         stop-color="#00bafa"
         id="stop338" />
      <stop
         offset="0.35"
         stop-color="#00a1ed"
         id="stop340" />
      <stop
         offset="0.63"
         stop-color="#0079d8"
         id="stop342" />
      <stop
         offset="0.95"
         stop-color="#0042ba"
         id="stop344" />
      <stop
         offset="1"
         stop-color="#003ab6"
         id="stop346" />
    </linearGradient>
    <linearGradient
       id="linear-gradient-2"
       x1="196.39999"
       y1="-47.73"
       x2="352.60001"
       y2="544.45001"
       xlink:href="#linear-gradient" />
    <linearGradient
       id="linear-gradient-3"
       x1="85.959999"
       y1="477.54999"
       x2="92.18"
       y2="477.54999"
       xlink:href="#linear-gradient" />
    <linearGradient
       id="linear-gradient-4"
       x1="50.330002"
       y1="-9.1999998"
       x2="206.53"
       y2="582.97998"
       xlink:href="#linear-gradient" />
    <linearGradient
       inkscape:collect="always"
       xlink:href="#linear-gradient-5"
       id="linearGradient545"
       gradientUnits="userSpaceOnUse"
       x1="596.34998"
       y1="386.23001"
       x2="15.7"
       y2="386.23001" />
    <linearGradient
       id="linear-gradient-5"
       x1="596.34998"
       y1="386.23001"
       x2="15.7"
       y2="386.23001"
       gradientUnits="userSpaceOnUse">
      <stop
         offset="0"
         stop-color="#4225a3"
         id="stop352" />
      <stop
         offset="1"
         stop-color="#c696d2"
         id="stop354" />
    </linearGradient>
    <linearGradient
       id="linear-gradient-6"
       x1="328.04001"
       y1="443.16"
       x2="338.91"
       y2="443.16"
       xlink:href="#linear-gradient" />
    <linearGradient
       id="linear-gradient-7"
       x1="384.92999"
       y1="15.72"
       x2="618.07001"
       y2="584.58002"
       xlink:href="#linear-gradient" />
    <linearGradient
       id="linear-gradient-8"
       x1="230.23"
       y1="79.120003"
       x2="463.37"
       y2="647.97998"
       xlink:href="#linear-gradient" />
    <linearGradient
       id="linear-gradient-9"
       x1="93.339996"
       y1="135.23"
       x2="326.48001"
       y2="704.09003"
       xlink:href="#linear-gradient" />
    <linearGradient
       id="linear-gradient-10"
       x1="528.91998"
       y1="358.45001"
       x2="55.439999"
       y2="358.45001"
       xlink:href="#linear-gradient-5" />
    <linearGradient
       id="linear-gradient-11"
       x1="396.23001"
       y1="338.82999"
       x2="590.12"
       y2="338.82999"
       xlink:href="#linear-gradient-5" />
  </defs>
  <sodipodi:namedview
     id="namedview12"
     pagecolor="#505050"
     bordercolor="#eeeeee"
     borderopacity="1"
     inkscape:showpageshadow="0"
     inkscape:pageopacity="0"
     inkscape:pagecheckerboard="0"
     inkscape:deskcolor="#505050"
     showgrid="false"
     inkscape:zoom="4.3884892"
     inkscape:cx="114.1623"
     inkscape:cy="46.485246"
     inkscape:window-width="1920"
     inkscape:window-height="1186"
     inkscape:window-x="-11"
     inkscape:window-y="-11"
     inkscape:window-maximized="1"
     inkscape:current-layer="svg10" />
  <path
     fill="#000a33"
     d="M 47.816752,8.7972566 Q 46.557363,7.5931574 46.791493,5.8259163 c 0.538569,-4.0621292 7.397976,-4.0703199 7.843711,0.025257 0.217066,1.9945455 -1.142665,3.6409671 -3.096938,3.9481355 -1.348809,0.2116045 -2.710589,-0.035495 -3.721514,-1.0020519 z"
     id="path100"
     style="stroke-width:0.0682596" />
  <rect
     fill="#000a33"
     x="150.34407"
     y="4.6149907"
     width="6.3645258"
     height="30.187126"
     rx="0.060751043"
     id="rect106"
     style="stroke-width:0.0682596" />
  <path
     fill="#000a33"
     d="m 63.805199,15.314682 q -6.81e-4,0.131067 0.086,0.0355 c 1.395909,-1.536523 3.33926,-2.428678 5.382953,-2.673728 3.327655,-0.398637 6.62596,0.568603 8.580914,3.434139 a 0.04846433,0.04846433 0 0 0 0.07782,0.0034 c 2.281235,-2.840282 5.888753,-3.855301 9.40822,-3.429362 3.238236,0.391811 5.86623,2.332431 6.842343,5.513329 0.410239,1.33857 0.541979,2.704445 0.543345,4.117418 q 0.0054,6.094217 0.0014,12.408231 a 0.08395932,0.07918115 0 0 1 -0.08398,0.07919 h -6.211627 a 0.0511947,0.04982951 0 0 1 -0.0512,-0.04983 q 0,-5.686026 -0.004,-11.383655 c -0.0014,-2.095571 -0.460059,-4.456672 -2.811602,-5.11879 -1.616387,-0.454607 -3.577485,-0.0587 -4.763153,1.169288 -1.116046,1.156317 -1.398639,2.817757 -1.402736,4.363154 q -0.01431,5.49285 -0.01089,10.986383 a 0.0348124,0.03344722 0 0 1 -0.03482,0.03345 h -6.279947 a 0.03412981,0.03686019 0 0 1 -0.03413,-0.03685 q 0,-5.869642 -0.01167,-11.737921 c -0.0061,-2.920831 -1.260075,-5.172033 -4.551553,-4.934489 -2.959738,0.214335 -4.370664,2.583627 -4.37476,5.348823 q -0.0082,5.662816 -0.0026,11.321536 a 0.03959057,0.03890798 0 0 1 -0.03959,0.03891 l -6.271691,6.83e-4 a 0.05529029,0.06484663 0 0 1 -0.05526,-0.06489 V 12.959726 a 0.04982951,0.0511947 0 0 1 0.04983,-0.0512 q 2.836185,0 5.683978,-0.004 0.163139,-6.81e-4 0.321501,0.03345 a 0.03276463,0.04095577 4.6 0 1 0.02663,0.03891 z"
     id="path118"
     style="stroke-width:0.0682596" />
  <path
     fill="#000a33"
     d="m 104.84082,32.581633 q -0.03,-0.03071 -0.0416,-0.07167 -0.005,-0.01638 -0.03,-0.004 a 0.0532425,0.04027317 80.1 0 0 -0.0225,0.04437 v 10.119485 a 0.03412981,0.03412981 0 0 1 -0.0341,0.03413 h -6.245748 a 0.0682596,0.0682596 0 0 1 -0.06826,-0.06826 V 12.993855 a 0.07576816,0.08122892 1.2 0 1 0.07919,-0.08124 q 0.7256,0.03139 1.495568,0.01844 2.22458,-0.03755 4.44984,-0.0048 a 0.03412981,0.03276463 1.2 0 1 0.0334,0.03345 l -6.8e-4,2.372022 q 0,0.08192 0.0539,0.02253 1.87031,-2.078506 4.58978,-2.561782 c 2.76519,-0.49147 5.57339,-0.101711 8.01231,1.33584 4.15496,2.449836 5.61435,7.150191 5.00274,11.70379 -0.85597,6.370669 -6.58841,10.213002 -12.82324,9.116071 -1.73789,-0.305804 -3.18295,-1.070311 -4.45053,-2.366561 z m -0.12696,-9.588427 c -0.29966,3.005471 0.96519,6.092851 4.19387,6.7734 3.04711,0.642323 5.91129,-0.911266 6.67306,-3.991822 0.57816,-2.337889 0.14129,-5.17203 -1.82799,-6.787052 -1.54881,-1.269628 -3.96793,-1.552224 -5.79729,-0.753586 -1.95973,0.855974 -3.03209,2.653252 -3.24165,4.75906 z"
     id="path120"
     style="stroke-width:0.0682596" />
  <path
     fill="#000a33"
     d="m 174.01305,22.565218 c 1.89831,0.569969 3.68125,1.996593 4.10241,4.045747 1.04983,5.111278 -3.11946,7.780912 -7.51675,8.33518 q -4.77544,0.602049 -9.34201,-0.878501 -1.45119,-0.470309 -2.75494,-1.258707 a 0.07918115,0.07918115 0 0 1 -0.0307,-0.101027 l 2.05121,-4.417761 a 0.0866897,0.0853245 28.2 0 1 0.12352,-0.03617 c 2.643,1.643007 6.43142,2.432771 9.49285,1.905807 0.88533,-0.152225 1.92152,-0.601367 2.04165,-1.623213 0.16862,-1.429356 -1.42934,-1.697617 -2.42866,-1.913999 q -0.36725,-0.07987 -0.96998,-0.169285 c -1.81298,-0.27099 -3.59796,-0.553585 -5.36451,-1.057342 -1.95497,-0.556997 -3.79661,-1.952222 -4.25667,-4.029363 -1.19319,-5.383635 3.25051,-8.222551 7.90377,-8.667605 3.45598,-0.330376 7.31129,0.105118 10.39254,1.747446 a 0.10375459,0.09624604 26.8 0 1 0.0478,0.129013 l -2.06828,4.411618 a 0.04163836,0.02730385 27.9 0 1 -0.0512,0.0048 q -3.38158,-1.845742 -7.25872,-1.55837 c -0.95906,0.071 -1.9809,0.298978 -2.66827,0.980892 -0.6041,0.599318 -0.5256,1.666217 0.14608,2.153589 0.62731,0.455293 1.88806,0.669627 2.68056,0.810925 1.92082,0.342663 3.96656,0.658022 5.72834,1.186352 z"
     id="path122"
     style="stroke-width:0.0682596" />
  <path
     fill="#000a33"
     d="m 199.99131,31.637601 c -2.78568,3.271684 -7.64031,3.894892 -11.62598,3.281922 -6.45123,-0.992495 -10.63145,-6.142681 -9.75021,-12.736559 0.35428,-2.64779 1.61502,-5.003428 3.60616,-6.760431 4.31469,-3.806837 11.94065,-3.849841 16.09561,0.221842 2.15291,2.109224 3.15838,4.825956 3.26554,7.825284 0.024,0.666896 -0.0655,1.41229 -0.11061,2.11946 a 0.0696248,0.07099 1.8 0 1 -0.0697,0.0669 h -16.39936 a 0.0853245,0.08873747 82.6 0 0 -0.0867,0.10784 c 0.75767,2.696253 2.93719,4.104449 5.64506,4.255303 2.16792,0.120815 4.18637,-0.374063 5.8198,-1.860073 q 0.12274,-0.111948 0.25325,-0.215702 a 0.03890798,0.03754279 49.2 0 1 0.052,0.0048 l 3.29967,3.578167 a 0.08737229,0.08122892 44.2 0 1 0.006,0.111263 z m -15.12906,-9.701055 10.67375,-6.82e-4 a 0.05460768,0.0518773 84.1 0 0 0.0506,-0.06553 c -0.42868,-2.264854 -1.93177,-3.992504 -4.25667,-4.382266 -2.73108,-0.458705 -5.43894,0.750172 -6.28262,3.498987 q -0.13799,0.448466 -0.22595,0.905122 a 0.04095577,0.03754279 4.8 0 0 0.0409,0.04437 z"
     id="path124"
     style="stroke-width:0.0682596" />
  <rect
     fill="#000a33"
     x="47.528015"
     y="12.911945"
     width="6.3481426"
     height="21.890856"
     rx="0.03071682"
     id="rect126"
     style="stroke-width:0.0682596" />
  <path
     fill="#000a33"
     d="m 134.05047,35.114064 c -3.84574,0.131067 -7.57067,-1.419117 -8.99866,-5.257356 -0.52696,-1.415703 -0.72765,-2.857346 -0.73242,-4.350184 q -0.0205,-6.234833 -0.0143,-12.470346 c 0,-0.09966 0.0287,-0.170649 0.14265,-0.1215 q 0.0205,0.0089 0.0601,0.0083 l 6.12221,-0.01844 a 0.03890798,0.04505134 0 0 1 0.0389,0.04505 q -0.003,5.637562 0.001,11.277169 c 0.001,2.378848 0.56041,4.733803 3.25529,5.288071 1.68806,0.346759 3.57681,-0.04301 4.78568,-1.328331 1.23209,-1.309902 1.42458,-3.072365 1.42595,-4.780901 q 0.004,-5.228687 0.001,-10.412321 a 0.08600711,0.09010269 0 0 1 0.086,-0.09011 l 6.22869,0.02047 a 0.03412981,0.032082 0 0 1 0.0341,0.03209 v 21.826001 a 0.02116048,0.02116048 0 0 1 -0.0211,0.02116 h -5.95154 a 0.05255989,0.0511947 0 0 1 -0.0525,-0.0512 l 0.003,-2.49557 q 0,-0.03756 -0.03,-0.0061 -2.58227,2.735162 -6.38501,2.864174 z"
     id="path128"
     style="stroke-width:0.0682596" />
  <g
     id="Layer_2"
     data-name="Layer 2"
     transform="matrix(0.0682596,0,0,0.0682596,-8.9089324e-5,1.8103887e-5)">
    <g
       id="Layer_1-2"
       data-name="Layer 1">
      <path
         class="cls-1"
         d="m 475.89,0 v 290.26 a 173.5,173.5 0 0 1 -17.49,26.42 c -9.33,12.82 -20.59,24.48 -33,35.36 -15.15,13.6 -31.86,25.65 -49.74,36.92 V 100.25 A 100,100 0 0 1 475.89,0 Z"
         id="path365"
         style="fill:url(#linearGradient543)" />
      <path
         class="cls-2"
         d="m 330.75,93.06 v 319.79 a 500.76,500.76 0 0 1 -50.12,20.59 c -17.1,6.22 -33.8,11.66 -50.12,16.71 V 193.31 c 0,-55.17 44.68,-99.47 99.47,-100.25 z"
         id="path367"
         style="fill:url(#linear-gradient-2)" />
      <path
         class="cls-3"
         d="m 86,476.58 c 1.94,0.38 3.88,1.16 6.22,1.55 -3.89,0.39 -6.22,0.39 -6.22,0.39 z"
         id="path369"
         style="fill:url(#linear-gradient-3)" />
      <path
         class="cls-4"
         d="m 186.21,177 v 284.42 c -6.6,1.56 -13.21,3.11 -19.43,4.28 -4.66,0.39 -9.32,0.39 -13.6,0.39 -26.42,-0.39 -49.35,-4.28 -67.22,-11.27 V 277.24 c 0,-54.79 44.69,-99.86 99.47,-100.25 z"
         id="path371"
         style="fill:url(#linear-gradient-4)" />
      <path
         class="cls-5"
         d="m 584.29,247.91 v 0.38 L 550.88,361 a 308.1,308.1 0 0 1 -37.3,37.3 c -0.39,0.39 -0.39,0.39 -0.78,0.39 v 0.39 c -8.94,7.38 -18.65,15.15 -28.75,22.53 -29.15,21 -63,40.8 -100.26,58.29 -5.82,2.33 -10.88,5.05 -16.7,7 a 143.5,143.5 0 0 1 -21,9.33 h -0.77 C 272.28,525 200.78,539.33 142.11,539.72 h -2.73 a 47,47 0 0 1 -7.77,-0.39 C 66.34,537.39 18.54,518 4.55,481.43 -6.71,452.68 3.39,418.48 29.81,382.74 23.2,401 22,418.1 27.87,432.86 c 8.55,21.37 28.75,35.75 57.9,43.91 a 23.23,23.23 0 0 1 6.6,1.55 c 0.78,0 0.78,0.39 1.55,0.39 21,5.06 46.24,6.22 73.83,4.67 8.16,-0.39 17.1,-1.56 26.43,-2.34 8.93,-1.55 17.87,-2.33 27.58,-4.27 a 134.76,134.76 0 0 1 17.1,-3.5 c 15.54,-3.88 32.64,-8.55 49,-13.6 H 289 c 12,-4.27 25.25,-8.16 37.3,-13.6 0.38,-0.39 1.55,-0.39 1.94,-0.77 a 106.13,106.13 0 0 0 10.1,-3.5 c 0,-0.78 0.39,-0.78 0.39,-1.17 a 169.76,169.76 0 0 0 24.48,-10.1 c 6.61,-3.11 14,-7 20.59,-10.1 10.11,-5.05 19.43,-10.88 28.76,-16.71 7,-4.28 14,-8.94 21,-13.6 v -0.39 c 2.72,-1.94 6.22,-3.5 8.94,-5.44 5.83,-4.66 12.43,-8.94 18.26,-13.6 0.78,-0.78 1.55,-0.78 1.94,-1.55 a 263.31,263.31 0 0 0 21.38,-18.66 c 5,-4.66 10.1,-9.71 14.37,-14.37 a 182.74,182.74 0 0 0 19.82,-24.48 v -0.39 c 16.71,-24.09 23.7,-46.63 20.2,-66.83 l 35.75,-11.66 a 64,64 0 0 1 10.07,15.16 z"
         id="path373"
         style="fill:url(#linearGradient545)" />
      <path
         class="cls-6"
         d="m 328,445.49 c 3.88,-1.16 7.38,-3.11 10.87,-4.66 0,0.39 -0.39,0.39 -0.39,0.78 -3.48,1.55 -6.95,2.72 -10.48,3.88 z"
         id="path375"
         style="fill:url(#linear-gradient-6)" />
      <path
         class="cls-7"
         d="m 475.89,0 v 290.26 a 173.5,173.5 0 0 1 -17.49,26.42 c -9.33,12.82 -20.59,24.48 -33,35.36 V 119.29 C 425.37,21 475.89,0 475.89,0 Z"
         id="path377"
         style="fill:url(#linear-gradient-7)" />
      <path
         class="cls-8"
         d="m 330.75,93.06 v 319.79 a 500.76,500.76 0 0 1 -50.12,20.59 V 256.65 C 280.63,105.88 323,94.23 330,93.06 Z"
         id="path379"
         style="fill:url(#linear-gradient-8)" />
      <path
         class="cls-9"
         d="m 186.21,177 v 284.42 c -6.6,1.56 -13.21,3.11 -19.43,4.28 -4.66,0.39 -9.32,0.39 -13.6,0.39 a 275.45,275.45 0 0 1 -10.49,-45.47 c -3.89,-23.7 -6.61,-53.62 -6.61,-90.14 0,-141.83 42.75,-152.71 49.35,-153.49 z"
         id="path381"
         style="fill:url(#linear-gradient-9)" />
      <path
         class="cls-10"
         d="m 519,250.63 c 1.17,23.31 -11.65,50.12 -35.74,76.54 -13.22,14.77 -30.31,29.53 -49.74,43.52 -22.92,17.1 -50.52,33 -80.82,47.41 -4.66,1.94 -8.55,4.27 -14,5.44 a 89.35,89.35 0 0 1 -16.32,7 c -0.39,0 -0.78,0.39 -1.16,0.39 -54.79,21.76 -109.19,33.42 -154.65,34.58 a 79.69,79.69 0 0 1 -13.21,0.78 C 126.55,465.51 103.62,462.02 85.75,454.63 66.32,446.86 52.75,435.2 46.5,418.88 37.19,396.34 45,368 66.73,339.22 c -5.06,14.37 -6.61,28.36 -1.17,40.41 3.5,9.71 10.49,17.87 20.21,24.09 q 13.4,8.75 32.63,12.82 a 156.7,156.7 0 0 0 24.09,4.28 c 11.27,0.38 22.93,0.38 35.75,0 A 58,58 0 0 0 186,420 a 139.88,139.88 0 0 1 14,-1.56 c 7,-0.77 14,-1.94 21.76,-3.1 a 33.17,33.17 0 0 1 8.94,-1.95 31.86,31.86 0 0 0 5.05,-0.77 c 12.82,-3.5 26.43,-6.61 39.63,-11.27 h 0.78 a 8.62,8.62 0 0 0 4.28,-1.95 c 8.93,-2.72 17.48,-5.43 26,-8.54 0.39,-0.78 0.78,-0.78 1.17,-1.17 2.72,-0.39 5.82,-1.94 8.54,-3.11 h 0.39 c 4.67,-2.33 9.72,-4.27 14,-6.6 a 11.35,11.35 0 0 0 5.44,-1.95 164.56,164.56 0 0 1 16.71,-8.16 c 7.77,-4.66 15.16,-8.93 22.54,-12.82 a 0.38,0.38 0 0 1 0.38,-0.39 c 6.22,-3.88 11.66,-7.77 17.49,-11.26 1.16,-0.78 1.94,-2.34 3.5,-2.72 5.43,-3.89 9.71,-7 14.76,-10.89 a 6,6 0 0 0 3.11,-2.33 4.17,4.17 0 0 0 1.95,-1.16 c 3.1,-2.33 6.21,-4.67 8.93,-7 l 0.39,-0.38 c 2.72,-2.34 5.44,-5.06 7.77,-7.39 l 5.05,-5.05 a 141.21,141.21 0 0 0 10.88,-11.27 q 15.74,-18.06 23.32,-31.47 c 1.16,-1.94 1.94,-3.89 2.72,-5.44 0,-0.39 0.39,-0.39 0.39,-0.78 v 5.05 z"
         id="path383"
         style="fill:url(#linear-gradient-10)" />
      <polygon
         class="cls-11"
         points="584.29,247.91 584.29,248.29 550.88,360.98 524.46,449.96 512.8,399.06 512.8,398.67 498.42,336.11 498.03,333.39 483.27,327.17 458.4,316.68 438.58,308.52 425.37,302.69 396.23,290.65 425.37,281.32 472.78,265.78 475.89,264.61 519.01,250.63 538.44,244.41 574.19,232.75 590.12,227.7 "
         id="polygon385"
         style="fill:url(#linear-gradient-11)" />
    </g>
  </g>
</svg>
