<svg width="56" height="57" viewBox="0 0 56 57" fill="none" xmlns="http://www.w3.org/2000/svg">
<rect x="4" y="4.72363" width="48" height="48" rx="24" fill="black"/>
<rect x="4" y="4.72363" width="48" height="48" rx="24" stroke="white" stroke-opacity="0.9" stroke-width="8"/>
<path d="M29.5295 25.0755C28.9571 25.4836 28.2566 25.7236 27.5 25.7236C25.567 25.7236 24 24.1566 24 22.2236C24 20.2906 25.567 18.7236 27.5 18.7236C28.753 18.7236 29.8522 19.3821 30.4705 20.3718M22 36.8108H24.6103C24.9506 36.8108 25.2889 36.8513 25.6188 36.9323L28.3769 37.6025C28.9753 37.7483 29.5988 37.7625 30.2035 37.645L33.253 37.0517C34.0585 36.8948 34.7996 36.5091 35.3803 35.9441L37.5379 33.8453C38.154 33.247 38.154 32.2761 37.5379 31.6767C36.9832 31.1371 36.1047 31.0763 35.4771 31.5339L32.9626 33.3685C32.6025 33.6317 32.1643 33.7735 31.7137 33.7735H29.2855L30.8311 33.7734C31.7022 33.7734 32.4079 33.087 32.4079 32.2395V31.9328C32.4079 31.2291 31.9156 30.6156 31.2141 30.4455L28.8286 29.8654C28.4404 29.7712 28.0428 29.7236 27.6431 29.7236C26.6783 29.7236 24.9319 30.5224 24.9319 30.5224L22 31.7485M36 23.2236C36 25.1566 34.433 26.7236 32.5 26.7236C30.567 26.7236 29 25.1566 29 23.2236C29 21.2906 30.567 19.7236 32.5 19.7236C34.433 19.7236 36 21.2906 36 23.2236ZM18 31.3236L18 37.1236C18 37.6837 18 37.9637 18.109 38.1776C18.2049 38.3658 18.3578 38.5188 18.546 38.6146C18.7599 38.7236 19.0399 38.7236 19.6 38.7236H20.4C20.9601 38.7236 21.2401 38.7236 21.454 38.6146C21.6422 38.5188 21.7951 38.3658 21.891 38.1776C22 37.9637 22 37.6837 22 37.1236V31.3236C22 30.7636 22 30.4836 21.891 30.2696C21.7951 30.0815 21.6422 29.9285 21.454 29.8326C21.2401 29.7236 20.9601 29.7236 20.4 29.7236L19.6 29.7236C19.0399 29.7236 18.7599 29.7236 18.546 29.8326C18.3578 29.9285 18.2049 30.0815 18.109 30.2696C18 30.4836 18 30.7636 18 31.3236Z" stroke="white" stroke-width="2" stroke-linecap="round" stroke-linejoin="round"/>
</svg>
