<svg width="56" height="57" viewBox="0 0 56 57" fill="none" xmlns="http://www.w3.org/2000/svg">
<rect x="4" y="4.72363" width="48" height="48" rx="24" fill="black"/>
<rect x="4" y="4.72363" width="48" height="48" rx="24" stroke="white" stroke-opacity="0.9" stroke-width="8"/>
<path d="M25 28.7236L27 30.7236L31.5 26.2236M23.3338 20.5423C24.1376 20.4782 24.9007 20.1621 25.5145 19.6391C26.9467 18.4185 29.0533 18.4185 30.4855 19.6391C31.0993 20.1621 31.8624 20.4782 32.6662 20.5423C34.5421 20.692 36.0316 22.1816 36.1813 24.0574C36.2455 24.8612 36.5615 25.6243 37.0846 26.2381C38.3051 27.6704 38.3051 29.7769 37.0846 31.2092C36.5615 31.8229 36.2455 32.586 36.1813 33.3899C36.0316 35.2657 34.5421 36.7552 32.6662 36.9049C31.8624 36.9691 31.0993 37.2852 30.4855 37.8082C29.0533 39.0288 26.9467 39.0288 25.5145 37.8082C24.9007 37.2852 24.1376 36.9691 23.3338 36.9049C21.4579 36.7552 19.9684 35.2657 19.8187 33.3899C19.7545 32.586 19.4385 31.8229 18.9154 31.2092C17.6949 29.7769 17.6949 27.6704 18.9154 26.2381C19.4385 25.6243 19.7545 24.8612 19.8187 24.0574C19.9684 22.1816 21.4579 20.692 23.3338 20.5423Z" stroke="white" stroke-width="2" stroke-linecap="round" stroke-linejoin="round"/>
</svg>
