<svg width="10" height="19" viewBox="0 0 10 19" fill="none" xmlns="http://www.w3.org/2000/svg">
<path d="M6.74299 8.52675H3.73209C3.33282 8.52675 2.94991 8.33822 2.66758 8.00263C2.38525 7.66704 2.22664 7.21188 2.22664 6.73728C2.22664 6.26268 2.38525 5.80752 2.66758 5.47193C2.94991 5.13634 3.33282 4.9478 3.73209 4.9478H7.49572C7.69536 4.9478 7.88681 5.04207 8.02798 5.20987C8.16914 5.37766 8.24845 5.60524 8.24845 5.84254C8.24845 6.07984 8.32775 6.30742 8.46891 6.47522C8.61008 6.64301 8.80154 6.73728 9.00117 6.73728C9.20081 6.73728 9.39227 6.64301 9.53343 6.47522C9.67459 6.30742 9.7539 6.07984 9.7539 5.84254C9.7539 5.13064 9.51598 4.44791 9.09249 3.94452C8.669 3.44113 8.09463 3.15833 7.49572 3.15833H5.99027V1.36886C5.99027 1.13156 5.91096 0.903979 5.7698 0.736183C5.62864 0.568388 5.43718 0.474121 5.23754 0.474121C5.03791 0.474121 4.84645 0.568388 4.70529 0.736183C4.56412 0.903979 4.48482 1.13156 4.48482 1.36886V3.15833H3.73209C2.93355 3.15833 2.16772 3.5354 1.60306 4.20658C1.03841 4.87776 0.721191 5.78808 0.721191 6.73728C0.721191 7.68647 1.03841 8.59679 1.60306 9.26798C2.16772 9.93916 2.93355 10.3162 3.73209 10.3162H6.74299C7.14227 10.3162 7.52518 10.5048 7.80751 10.8404C8.08984 11.1759 8.24845 11.6311 8.24845 12.1057C8.24845 12.5803 8.08984 13.0355 7.80751 13.371C7.52518 13.7066 7.14227 13.8952 6.74299 13.8952H2.97937C2.77973 13.8952 2.58827 13.8009 2.44711 13.6331C2.30595 13.4653 2.22664 13.2377 2.22664 13.0004C2.22664 12.7631 2.14734 12.5356 2.00617 12.3678C1.86501 12.2 1.67355 12.1057 1.47392 12.1057C1.27428 12.1057 1.08282 12.2 0.94166 12.3678C0.800496 12.5356 0.721191 12.7631 0.721191 13.0004C0.721191 13.7123 0.959106 14.3951 1.3826 14.8985C1.80609 15.4018 2.38046 15.6846 2.97937 15.6846H4.48482V17.4741C4.48482 17.7114 4.56412 17.939 4.70529 18.1068C4.84645 18.2746 5.03791 18.3689 5.23754 18.3689C5.43718 18.3689 5.62864 18.2746 5.7698 18.1068C5.91096 17.939 5.99027 17.7114 5.99027 17.4741V15.6846H6.74299C7.54154 15.6846 8.30737 15.3076 8.87202 14.6364C9.43668 13.9652 9.7539 13.0549 9.7539 12.1057C9.7539 11.1565 9.43668 10.2462 8.87202 9.575C8.30737 8.90382 7.54154 8.52675 6.74299 8.52675V8.52675Z" fill="#FD9800"/>
</svg>
