<svg width="16" height="19" viewBox="0 0 16 19" fill="none" xmlns="http://www.w3.org/2000/svg">
<path d="M15.2485 7.43996C15.037 7.13812 14.7724 6.89514 14.4732 6.72817C14.1741 6.56121 13.8478 6.47432 13.5173 6.47365H10.0849L10.5064 5.19417C10.6817 4.63396 10.7401 4.03156 10.6765 3.43863C10.613 2.8457 10.4294 2.27995 10.1414 1.7899C9.85353 1.29986 9.4699 0.900149 9.02346 0.625059C8.57703 0.349969 8.08112 0.207712 7.57828 0.210489C7.43348 0.210848 7.29185 0.260841 7.17035 0.354473C7.04886 0.448105 6.95266 0.581402 6.8933 0.738384L4.74803 6.47365H2.97912C2.38022 6.47365 1.80584 6.75645 1.38235 7.25983C0.958862 7.76322 0.720947 8.44596 0.720947 9.15786V15.421C0.720947 16.1329 0.958862 16.8157 1.38235 17.319C1.80584 17.8224 2.38022 18.1052 2.97912 18.1052H12.5613C13.0896 18.105 13.6011 17.8847 14.0068 17.4825C14.4125 17.0804 14.6868 16.5219 14.7819 15.9042L15.7378 9.64102C15.7969 9.25393 15.7838 8.85613 15.6992 8.47578C15.6147 8.09542 15.4608 7.74181 15.2485 7.43996ZM4.48457 16.3158H2.97912C2.77949 16.3158 2.58803 16.2215 2.44687 16.0537C2.3057 15.8859 2.2264 15.6583 2.2264 15.421V9.15786C2.2264 8.92056 2.3057 8.69298 2.44687 8.52518C2.58803 8.35739 2.77949 8.26312 2.97912 8.26312H4.48457V16.3158ZM14.27 9.31891L13.314 15.5821C13.282 15.7905 13.1887 15.9786 13.0509 16.113C12.913 16.2474 12.7396 16.3192 12.5613 16.3158H5.99002V7.55628L8.03744 2.08049C8.24819 2.15352 8.44392 2.2777 8.61226 2.44517C8.78061 2.61264 8.91792 2.81978 9.01553 3.05351C9.11314 3.28724 9.16892 3.54248 9.17936 3.80313C9.18981 4.06377 9.15468 4.32416 9.0762 4.56786L8.67725 5.84733C8.59225 6.11777 8.56355 6.40864 8.59361 6.69512C8.62367 6.9816 8.71159 7.25518 8.84988 7.49252C8.98817 7.72985 9.17271 7.9239 9.38776 8.05808C9.6028 8.19227 9.84197 8.26262 10.0849 8.26312H13.5173C13.6279 8.26291 13.7371 8.29166 13.8373 8.34733C13.9375 8.403 14.0261 8.48423 14.0969 8.58523C14.1694 8.68483 14.2225 8.80224 14.2524 8.92907C14.2824 9.05589 14.2884 9.18901 14.27 9.31891Z" fill="#FD9800"/>
</svg>
