<?xml version="1.0" encoding="UTF-8" standalone="no"?>
<svg
   version="1.1"
   viewBox="0.00 0.00 212.00 285.00"
   id="svg179"
   sodipodi:docname="logoelite.svg"
   inkscape:version="1.3.2 (091e20ef0f, 2023-11-25, custom)"
   xmlns:inkscape="http://www.inkscape.org/namespaces/inkscape"
   xmlns:sodipodi="http://sodipodi.sourceforge.net/DTD/sodipodi-0.dtd"
   xmlns="http://www.w3.org/2000/svg"
   xmlns:svg="http://www.w3.org/2000/svg">
  <defs
     id="defs179" />
  <sodipodi:namedview
     id="namedview179"
     pagecolor="#505050"
     bordercolor="#eeeeee"
     borderopacity="1"
     inkscape:showpageshadow="0"
     inkscape:pageopacity="0"
     inkscape:pagecheckerboard="0"
     inkscape:deskcolor="#d1d1d1"
     inkscape:zoom="1.1353672"
     inkscape:cx="22.90008"
     inkscape:cy="162.94288"
     inkscape:window-width="1366"
     inkscape:window-height="696"
     inkscape:window-x="0"
     inkscape:window-y="0"
     inkscape:window-maximized="1"
     inkscape:current-layer="svg179" />
  <g
     id="g1">
    <g
       stroke-width="2"
       fill="none"
       stroke-linecap="butt"
       id="g119"
       transform="matrix(0.94902735,0,0,0.94902735,5.3489861,7.3412681)">
      <path
         stroke="#9b7178"
         vector-effect="non-scaling-stroke"
         d="m 104.78,17.5 c -4.11,2.88 -16.07,13.2 -13.17,18.78 1.61,3.08 3.99,5.38 4.97,8.9 q 1.23,4.36 0.6,10.44 -2.12,20.45 -22.55,20.54"
         id="path1" />
      <path
         stroke="#9a889b"
         vector-effect="non-scaling-stroke"
         d="M 74.63,76.16 Q 73.98,75.9 72.66,75.88"
         id="path2" />
      <path
         stroke="#9b7178"
         vector-effect="non-scaling-stroke"
         d="M 72.66,75.88 Q 63.78,75.4 58.79,68.43 56.21,64.84 54.83,60.94 53.7,57.76 55.07,53.41 c 1.13,-3.62 2.62,-8.82 -1.4,-11.45 q -7.09,-4.65 -16.42,-8.68 -1.08,-0.47 -0.67,0.63 l 3.51,9.51 q 0.38,1.03 1.37,1.51 l 3.44,1.69 q 0.66,0.32 0.34,0.99 l -1.93,4.09 a 1.48,1.44 49.5 0 0 -0.07,1.08 l 9.92,31.4"
         id="path3" />
      <path
         stroke="#855469"
         vector-effect="non-scaling-stroke"
         d="m 53.16,84.18 0.22,0.95 q 0.13,0.55 0.7,0.49 l 18.87,-2.01"
         id="path4" />
      <path
         stroke="#9a889b"
         vector-effect="non-scaling-stroke"
         d="m 72.95,83.61 2.88,-0.23"
         id="path5" />
      <path
         stroke="#9b7178"
         vector-effect="non-scaling-stroke"
         d="m 75.83,83.38 2.79,-0.41"
         id="path6" />
      <path
         stroke="#855469"
         vector-effect="non-scaling-stroke"
         d="m 78.62,82.97 q 11.42,-1.12 22.97,-2.49 c 2.67,-0.32 5.01,-0.24 7.54,0.04 q 22.69,2.51 46.3,5.2 0.89,0.1 1.16,-0.75 l 10.11,-32.1 q 0.18,-0.57 -0.08,-1.12 l -2.01,-4.25 q -0.28,-0.57 0.3,-0.85 l 3.54,-1.7 q 1.27,-0.61 1.69,-1.96 1.42,-4.53 3.39,-8.98 0.6,-1.35 -0.76,-0.77 -8.06,3.48 -15.24,7.88 c -2.12,1.3 -4.07,3.06 -3.87,5.76 q 0.28,3.82 1.56,7.95 0.92,2.98 -0.01,5.74 c -2.21,6.6 -6.64,12.83 -13.63,14.66 q -9.35,2.44 -17.49,-1.22 C 114,69.46 111.68,57.89 112.91,47.61 c 0.47,-3.89 2.57,-6.93 4.83,-10.01 1.03,-1.4 1.5,-3.26 0.86,-4.92 -2.34,-6.02 -8,-11.35 -13.2,-15.05 q -0.47,-0.33 -0.62,-0.13"
         id="path7" />
      <path
         stroke="#e8aa2a"
         vector-effect="non-scaling-stroke"
         d="m 78.62,82.97 q 0.61,-0.3 0.29,-1.57 -0.27,-1.06 0.81,-1.22 l 24.59,-3.69 a 0.91,0.9 85.7 0 0 0.78,-0.91 l -0.03,-29.65 a 1.65,1.64 -66.4 0 0 -0.43,-1.11 l -8.5,-9.54 a 0.47,0.47 0 0 1 0.33,-0.78 l 3.49,-0.18"
         id="path8" />
      <path
         stroke="#855469"
         vector-effect="non-scaling-stroke"
         d="m 99.95,34.32 4.89,5.03 a 0.47,0.47 0 0 0 0.67,0 l 4.48,-4.54 a 0.45,0.45 0 0 0 0.04,-0.59 q -2.53,-3.24 -5.33,-4.93"
         id="path9" />
      <path
         stroke="#e8aa2a"
         vector-effect="non-scaling-stroke"
         d="M 104.7,29.29 104.78,17.5"
         id="path10" />
      <path
         stroke="#9b7178"
         vector-effect="non-scaling-stroke"
         d="m 104.7,29.29 -4.75,5.03"
         id="path11" />
      <path
         stroke="#fddf5c"
         vector-effect="non-scaling-stroke"
         d="m 75.83,83.38 -1.2,-7.22"
         id="path12" />
      <path
         stroke="#e7c24d"
         vector-effect="non-scaling-stroke"
         d="m 72.95,83.61 -0.39,-0.05 q -0.44,-0.06 -0.29,-0.48 0.19,-0.53 0.19,-0.94"
         id="path13" />
      <path
         stroke="#fddf5c"
         vector-effect="non-scaling-stroke"
         d="m 72.66,75.88 q -2.2,-0.14 -0.2,6.26"
         id="path14" />
      <path
         stroke="#e8aa2a"
         vector-effect="non-scaling-stroke"
         d="m 72.46,82.14 -0.41,-0.4 a 0.67,0.65 62.8 0 0 -0.54,-0.18 l -18.35,2.62"
         id="path15" />
      <path
         stroke="#9b7178"
         vector-effect="non-scaling-stroke"
         d="m 71.7,40.35 c -2.11,2 -7.78,8.9 -4.32,11.79 5.33,4.46 4.46,12.68 3.88,18.85 q -0.04,0.5 0.45,0.6 1.57,0.34 2.96,0.06"
         id="path16" />
      <path
         stroke="#855469"
         vector-effect="non-scaling-stroke"
         d="m 74.67,71.65 q 5.15,0.75 9.53,-1.39 0.52,-0.25 0.19,-0.72 C 80.81,64.46 76.87,56.03 80.14,50.09 q 1.52,-2.77 -1.32,-5.41 -3.13,-2.92 -6.12,-4.3 -0.22,-0.11 -0.47,-0.09 -0.22,0.02 -0.53,0.06"
         id="path17" />
      <path
         stroke="#e8aa2a"
         vector-effect="non-scaling-stroke"
         d="m 74.67,71.65 1.99,-1.77 q 0.38,-0.34 0.3,-0.85 l -3.22,-18.3"
         id="path18" />
      <path
         stroke="#855469"
         vector-effect="non-scaling-stroke"
         d="m 73.74,50.73 q 1.14,-1.05 1.67,-2.27 a 0.81,0.79 -53.7 0 0 -0.12,-0.85 q -1.1,-1.29 -2.68,-1.43"
         id="path19" />
      <path
         stroke="#e8aa2a"
         vector-effect="non-scaling-stroke"
         d="m 72.61,46.18 q -0.27,-2.4 -0.36,-4.93 0.36,-0.33 -0.55,-0.9"
         id="path20" />
      <path
         stroke="#9b7178"
         vector-effect="non-scaling-stroke"
         d="m 72.61,46.18 q -1.13,1.15 -1.44,2.28 -0.15,0.51 0.3,0.8 l 2.27,1.47"
         id="path21" />
      <path
         stroke="#855469"
         vector-effect="non-scaling-stroke"
         d="m 126.76,70.61 q 5.5,2.08 11.49,1 0.52,-0.1 0.44,-0.62 -0.35,-2.49 -0.33,-4.88 c 0.05,-5.74 -0.29,-10.23 4.29,-14.14 0.96,-0.82 1.24,-2.32 0.87,-3.47 Q 142.06,43.98 138,40.09"
         id="path22" />
      <path
         stroke="#9b7178"
         vector-effect="non-scaling-stroke"
         d="m 138,40.09 q -3.98,1.64 -7.48,5.17 c -1.29,1.3 -1.9,2.67 -0.97,4.41 3.39,6.36 -0.27,14.25 -3.96,19.76 q -0.27,0.4 0.1,0.72 0.36,0.31 1.07,0.46"
         id="path23" />
      <path
         stroke="#e8aa2a"
         vector-effect="non-scaling-stroke"
         d="m 138,40.09 -1.5,5.78"
         id="path24" />
      <path
         stroke="#9b7178"
         vector-effect="non-scaling-stroke"
         d="m 136.5,45.87 -2.01,1.73 q -0.39,0.34 -0.2,0.82 0.43,1.08 1.42,2.19"
         id="path25" />
      <path
         stroke="#e8aa2a"
         vector-effect="non-scaling-stroke"
         d="m 135.71,50.61 -2.99,18.49 a 1.01,1.01 0 0 1 -1.05,0.84 q -2.34,-0.13 -4.91,0.67"
         id="path26" />
      <path
         stroke="#855469"
         vector-effect="non-scaling-stroke"
         d="m 135.71,50.61 q 1.07,0 2.45,-1.35 a 1.01,1.01 0 0 0 0.16,-1.22 q -0.86,-1.48 -1.82,-2.17"
         id="path27" />
      <path
         stroke="#9a889b"
         vector-effect="non-scaling-stroke"
         d="m 78.93,84.89 q -0.64,0.02 -0.99,0.17"
         id="path28" />
      <path
         stroke="#9b7178"
         vector-effect="non-scaling-stroke"
         d="m 77.94,85.06 -1.4,0.24"
         id="path29" />
      <path
         stroke="#9a889b"
         vector-effect="non-scaling-stroke"
         d="m 76.54,85.3 q -1.53,-0.17 -3.52,0.3"
         id="path30" />
      <path
         stroke="#9b7178"
         vector-effect="non-scaling-stroke"
         d="m 73.02,85.6 -18.85,2.15 q -0.47,0.05 -0.48,0.52 l -0.03,7.24 a 0.37,0.37 0 0 0 0.4,0.37 l 21.01,-1.86"
         id="path31" />
      <path
         stroke="#9a889b"
         vector-effect="non-scaling-stroke"
         d="m 75.07,94.02 2.58,-0.11"
         id="path32" />
      <path
         stroke="#9b7178"
         vector-effect="non-scaling-stroke"
         d="m 77.65,93.91 24.88,-2.26"
         id="path33" />
      <path
         stroke="#855469"
         vector-effect="non-scaling-stroke"
         d="m 102.53,91.65 53.23,4.36 a 0.18,0.18 0 0 0 0.19,-0.18 l -0.1,-7.81 q 0,-0.21 -0.22,-0.24 l -51,-5.65"
         id="path34" />
      <path
         stroke="#9b7178"
         vector-effect="non-scaling-stroke"
         d="m 104.63,82.13 -25.7,2.76"
         id="path35" />
      <path
         stroke="#e8aa2a"
         vector-effect="non-scaling-stroke"
         d="m 104.63,82.13 q 0.36,5.61 -0.01,8.62 -0.14,1.18 -2.09,0.9"
         id="path36" />
      <path
         stroke="#fddf5c"
         vector-effect="non-scaling-stroke"
         d="M 77.65,93.91 Q 77.88,89.99 76.54,85.3"
         id="path37" />
      <path
         stroke="#fddf5c"
         vector-effect="non-scaling-stroke"
         d="m 77.94,85.06 1.19,7.82 q 0.08,0.49 0.57,0.49 h 0.52 q 0.45,0 0.46,-0.45 0.08,-4.31 -1.75,-8.03"
         id="path38" />
      <path
         stroke="#fddf5c"
         vector-effect="non-scaling-stroke"
         d="M 75.07,94.02 73.02,85.6"
         id="path39" />
      <path
         stroke="#997bb2"
         vector-effect="non-scaling-stroke"
         d="m 70.43,141.11 q 0.88,0.39 1.32,1.16 0.27,0.48 -0.27,0.47 l -5.73,-0.04 q -0.58,0 -0.53,0.58 0.05,0.63 0.59,1.06"
         id="path40" />
      <path
         stroke="#9171a9"
         vector-effect="non-scaling-stroke"
         d="m 65.81,144.34 q 2.38,5.97 6.44,10.66 c 2.02,2.32 4.52,4.32 7.57,3.56 q 4.66,-1.16 9.12,-2.35 0.71,-0.18 0.14,-0.64 -2.74,-2.25 -5.75,-3.63 -0.52,-0.24 -0.19,-0.7 2.23,-3.07 4.3,-6.42 c 2,-3.24 4.15,-3.9 7.37,-5.09 q 1.38,-0.52 -0.01,-1 -0.79,-0.27 -1.65,-0.19 -0.75,0.08 -0.65,-0.66 c 0.81,-6.34 1.64,-12.28 0.96,-18.72 q -0.13,-1.28 -0.86,-0.22 -2.95,4.25 -9.11,5.79 -0.27,0.07 -0.33,-0.2 l -0.07,-0.3 q -0.02,-0.06 0.04,-0.08 2,-0.82 3.48,-1.98 0.72,-0.56 -0.19,-0.49 -3.03,0.21 -8.01,-0.08 -6.13,-0.35 -8.84,-5.32"
         id="path41" />
      <path
         stroke="#997bb2"
         vector-effect="non-scaling-stroke"
         d="m 69.57,116.28 q -0.41,-0.61 -0.54,-1.28 -0.12,-0.67 0.53,-0.49 2.29,0.62 4.41,0.06 1.26,-0.34 0.01,-0.68 l -6.44,-1.75 q -0.44,-0.12 0.01,-0.21 4.4,-0.82 8.31,-0.04 4.51,0.89 9.3,2.17 3.65,0.98 8.14,1.02 0.53,0 0.64,0.51 2.34,10.15 3.22,19.24 0.24,2.43 0.18,4.95 -0.01,0.57 -0.55,0.75 c -5.56,1.84 -6.8,9.15 0.42,10.07 q 0.9,0.11 1.5,0.76 0.76,0.8 0.71,1.76"
         id="path42" />
      <path
         stroke="#9171a9"
         vector-effect="non-scaling-stroke"
         d="m 99.42,153.12 q 7.09,6.16 11.84,-1.41 0.63,-1 1.76,-1.19 6.11,-1.07 4.21,-6.45 -0.75,-2.13 -3.07,-3.06 -0.7,-0.28 0.03,-0.47 c 2.88,-0.72 5.52,1.06 6.91,3.44 q 2.25,3.86 4.98,7.75 0.39,0.56 -0.25,0.79 -2.8,1.03 -5.13,3.16 -0.36,0.33 0.11,0.46 5.01,1.45 9.64,2.48 2.6,0.57 4.72,-1.44 6.29,-5.97 9.57,-14.05 a 0.33,0.33 0 0 0 -0.31,-0.45 l -5.46,0.04 q -1.54,0.02 -0.35,-0.95 4.46,-3.62 9.15,-8.35 3.51,-3.55 4.89,-6.71 2.15,-4.95 2.89,-11.07 1.02,-8.33 0.57,-16.66"
         id="path43" />
      <path
         stroke="#997bb2"
         vector-effect="non-scaling-stroke"
         d="M 156.12,98.98 111.49,94.25"
         id="path44" />
      <path
         stroke="#9171a9"
         vector-effect="non-scaling-stroke"
         d="m 111.49,94.25 q -4.9,-0.97 -7.74,-0.71 -10.75,0.99 -46.02,4.95 -1.76,0.2 -3.58,0.31 a 0.63,0.63 0 0 0 -0.59,0.62 q -0.07,7.83 0.99,16.87 c 0.6,5.14 1.82,10.49 4.97,14.16 q 4.93,5.72 10.91,10.66"
         id="path45" />
      <path
         stroke="#f2d2a4"
         vector-effect="non-scaling-stroke"
         d="m 111.49,94.25 q -3.67,0.36 -7.35,0.39 -3.75,0.04 -6.7,0.81 -5.12,1.36 -8.22,1.91 -11.67,2.09 -22.51,4.58 a 0.56,0.55 -26.1 0 0 -0.31,0.89 q 0.39,0.46 1.02,0.39 0.45,-0.05 0.32,0.39 c -0.29,0.92 -7.96,0.6 -9.23,4.26 q -0.48,1.39 -0.29,2.89 c 1.12,8.93 4.4,19.16 9.92,26.66 q 1.26,1.71 2.29,3.69"
         id="path46" />
      <path
         stroke="#f2d2a4"
         vector-effect="non-scaling-stroke"
         d="m 156.12,98.98 -5.14,17.56 q -0.64,2.2 -1.22,-0.01 -0.17,-0.67 -0.39,-1.36 -0.29,-0.89 -0.52,0.01 c -2.05,7.97 -6.53,15.25 -11.77,21.78 q -2.06,2.57 -4.74,1.86 -0.54,-0.15 -0.51,0.41 l 0.2,3.26 q 0.06,1.05 -0.6,0.24 -2.93,-3.54 -7.24,-6.33 a 0.27,0.27 0 0 0 -0.42,0.27 q 0.08,0.59 0.39,1.1 a 0.36,0.36 0 0 1 -0.41,0.53 q -7.1,-1.88 -14.4,0.72 -0.72,0.25 -0.1,0.7 c 1.49,1.07 3.59,3.84 3.17,5.92 q -0.11,0.55 -0.58,0.87 -2.71,1.84 -3.3,2.98 -2.75,5.22 -9.12,3.63"
         id="path47" />
      <path
         stroke="#f2d2a4"
         vector-effect="non-scaling-stroke"
         d="m 69.57,116.28 c -0.45,3.46 1.69,5.9 4.39,7.85 1.79,1.29 3.84,1.35 5.82,2.22 q 1.54,0.68 3.72,0.19 3.45,-0.77 6.46,-2.37 a 0.41,0.4 83.9 0 1 0.58,0.47 q -2.08,7.14 -2.72,14.06 -0.05,0.48 -0.33,0.87 -2.93,3.99 -5.42,8.38 -2.34,4.15 -7.06,3.74 -0.49,-0.04 -0.87,-0.36 l -8.33,-6.99"
         id="path48" />
      <path
         stroke="#997bb2"
         vector-effect="non-scaling-stroke"
         d="m 48.88,99.04 q -8.11,3.4 -3.45,11.13 c 0.85,1.4 2.04,2.43 2.46,4.07 q 0.92,3.52 2.17,6.64 0.37,0.92 1.19,1.42 0.69,0.42 0.57,-0.38 -1.74,-11.97 -2.36,-22.52 -0.04,-0.58 -0.58,-0.36"
         id="path49" />
      <path
         stroke="#997bb2"
         vector-effect="non-scaling-stroke"
         d="m 160.98,116.86 c -0.16,1.32 -0.52,2.61 -0.63,3.93 q -0.27,3.11 1.22,0.37 1.43,-2.65 2.35,-6.22 c 0.74,-2.86 3.06,-4.7 3.83,-7.55 q 1.6,-5.99 -4.61,-8.3 -0.55,-0.21 -0.59,0.38 -0.59,8.85 -1.57,17.39"
         id="path50" />
      <path
         stroke="#8879c8"
         vector-effect="non-scaling-stroke"
         d="m 85.72,118.63 1.47,-0.51 q 0.94,-0.34 0.02,-0.74 -1.19,-0.52 -2.5,-0.64 -3.51,-0.32 -6.72,-1.08 -1.13,-0.27 -0.44,0.66 2.77,3.72 7.29,3 0.33,-0.05 0.5,-0.36 a 0.72,0.69 -84.8 0 1 0.38,-0.33"
         id="path51" />
      <path
         stroke="#9687d6"
         vector-effect="non-scaling-stroke"
         d="m 161.61,161.42 c -4.06,-6.67 -6.56,-13.89 -7.21,-21.72 q -0.01,-0.11 -0.08,-0.2 -0.12,-0.17 -0.28,-0.15 -0.35,0.03 -0.43,0.37 -0.36,1.54 -0.29,3.19 0.48,11.07 7.8,19.03 0.27,0.29 0.49,-0.04 0.15,-0.23 0,-0.48"
         id="path52" />
      <path
         stroke="#9687d6"
         vector-effect="non-scaling-stroke"
         d="m 55.48,139.78 c -0.82,8.09 -3.15,15.08 -7.29,21.7 q -0.26,0.41 0.23,0.4 0.2,0 0.33,-0.14 8.41,-8.78 7.65,-21.92 a 0.31,0.31 0 0 0 -0.27,-0.28 l -0.33,-0.03 q -0.29,-0.03 -0.32,0.27"
         id="path53" />
      <path
         stroke="#9687d6"
         vector-effect="non-scaling-stroke"
         d="m 58.39,152.66 q -3.52,7.51 -8.34,13.16 -1.61,1.89 -3.2,3.81 c -7.62,9.21 -6.58,20.33 1.61,28.94"
         id="path54" />
      <path
         stroke="#8879c8"
         vector-effect="non-scaling-stroke"
         d="m 48.46,198.57 q 3.39,3.48 7.79,5.47 0.94,0.42 0.4,-0.46 c -3.84,-6.19 -5.43,-13.75 -3.75,-20.69 1.03,-4.23 3.91,-7.72 7.17,-10.63 6.91,-6.18 4.58,-18.82 1.45,-26.33 q -0.42,-1.02 -0.79,0.02 l -2.34,6.71"
         id="path55" />
      <path
         stroke="#e6e6e6"
         vector-effect="non-scaling-stroke"
         d="m 48.46,198.57 q 0.35,-0.17 0.37,-0.18 a 0.48,0.48 0 0 0 0.43,-0.64 c -3.31,-9.07 -2.11,-17.93 5.37,-24.7 q 5.5,-4.97 5.28,-12.81 -0.14,-4.62 -1.52,-7.58"
         id="path56" />
      <path
         stroke="#9687d6"
         vector-effect="non-scaling-stroke"
         d="m 146.26,152.63 q -2.03,8.03 0.52,15.17 c 1.04,2.9 3.05,4.34 5.08,6.39 6.7,6.72 7.21,16.18 3.86,24.58"
         id="path57" />
      <path
         stroke="#8879c8"
         vector-effect="non-scaling-stroke"
         d="m 155.72,198.77 -2.42,5.15 q -0.28,0.61 0.31,0.29 c 11.15,-6.05 17.98,-16.57 12.87,-29.02 q -1.32,-3.23 -3.7,-5.86 c -4.49,-4.96 -7.97,-9.85 -11.05,-16.14 q -1.74,-3.57 -2.4,-6.53 -0.49,-2.2 -1.28,-0.09 -1.16,3.07 -1.79,6.06"
         id="path58" />
      <path
         stroke="#e6e6e6"
         vector-effect="non-scaling-stroke"
         d="m 155.72,198.77 q 0.12,0.57 0.25,0.61 0.49,0.16 0.79,-0.27 c 2.48,-3.66 5.42,-7.35 6.38,-11.77 1.74,-8.03 -1.62,-14.61 -7.13,-20.53 q -1.85,-2 -3.51,-4.57 -3.08,-4.75 -6.24,-9.61"
         id="path59" />
      <path
         stroke="#9687d6"
         vector-effect="non-scaling-stroke"
         d="m 90.7,161.11 q -13.68,-0.07 -24.27,10.32 -5.33,5.24 -7.89,11.42"
         id="path60" />
      <path
         stroke="#8879c8"
         vector-effect="non-scaling-stroke"
         d="m 58.54,182.85 q -1.14,0.46 -2.1,3.3 a 0.33,0.33 0 0 0 0.45,0.4 q 6.85,-3.22 11.45,-8.4"
         id="path61" />
      <path
         stroke="#9687d6"
         vector-effect="non-scaling-stroke"
         d="m 68.34,178.15 q 4.49,-4.2 10.17,-6.98 1.86,-0.91 3.73,-1.11 0.71,-0.08 0.07,0.26 -1.65,0.86 -3.26,1.5 -3.79,1.48 -6.68,5.63"
         id="path62" />
      <path
         stroke="#8879c8"
         vector-effect="non-scaling-stroke"
         d="m 72.37,177.45 q -0.82,0.7 -1.56,3.14 -0.48,1.56 0.78,0.52 c 2.15,-1.78 5.41,-2.7 8.08,-3.53 q 2.76,-0.85 5.77,-1.13 c 6.27,-0.59 14.72,-4.4 17.5,-10.77 a 0.56,0.56 0 0 0 -0.27,-0.72 Q 97.1,162.31 90.7,161.11"
         id="path63" />
      <path
         stroke="#e6e6e6"
         vector-effect="non-scaling-stroke"
         d="m 72.37,177.45 q 6.21,-0.71 11.69,-1.57 0.97,-0.16 1.93,-0.68 0.89,-0.49 1.85,-0.81 6.68,-2.25 10.41,-8.32 a 0.95,0.95 0 0 0 -0.66,-1.43 q -4.54,-0.73 -6.89,-3.53"
         id="path64" />
      <path
         stroke="#e6e6e6"
         vector-effect="non-scaling-stroke"
         d="m 68.34,178.15 q -0.1,-2.78 2.63,-4.53 0.16,-0.11 0.18,-0.3 0.01,-0.14 -0.12,-0.24 -0.29,-0.24 -0.61,-0.03 -5.98,3.85 -11.88,9.8"
         id="path65" />
      <path
         stroke="#8879c8"
         vector-effect="non-scaling-stroke"
         d="m 131.72,177.85 7.02,3.3 q 0.41,0.19 0.3,-0.25 -1.45,-5.86 -7.29,-8.56"
         id="path66" />
      <path
         stroke="#9687d6"
         vector-effect="non-scaling-stroke"
         d="m 131.75,172.34 -3.43,-1.74 q -1.11,-0.57 0.11,-0.29 c 7.01,1.56 12.09,7.03 17.43,11.72"
         id="path67" />
      <path
         stroke="#8879c8"
         vector-effect="non-scaling-stroke"
         d="m 145.86,182.03 q 2.68,2.78 7.12,4.48 0.76,0.29 0.43,-0.45 -3.14,-7.02 -7.84,-12.62 -9.27,-11.04 -23.18,-12.07"
         id="path68" />
      <path
         stroke="#9687d6"
         vector-effect="non-scaling-stroke"
         d="m 122.39,161.37 q -1.72,-0.26 -3.86,-0.17 -1.94,0.09 -3.61,0.91 -3.61,1.78 -7.36,2.69 a 0.88,0.88 0 0 0 -0.56,1.29 c 3.6,6.32 11.05,9.66 18.26,10.34 q 3.34,0.31 6.46,1.42"
         id="path69" />
      <path
         stroke="#e6e6e6"
         vector-effect="non-scaling-stroke"
         d="m 122.39,161.37 q 9.41,3.37 15.88,9.6 3.76,3.62 4.72,4.8 2.23,2.74 2.87,6.26"
         id="path70" />
      <path
         stroke="#e6e6e6"
         vector-effect="non-scaling-stroke"
         d="m 131.75,172.34 q 0.46,2.22 1.12,4.18 0.35,1.03 -1.15,1.33"
         id="path71" />
      <path
         stroke="#9171a9"
         vector-effect="non-scaling-stroke"
         d="m 94.4,180.02 q 8.31,3.71 18.1,1.18 2.82,-0.73 4.18,-2.39 0.45,-0.56 -0.24,-0.75 c -3.93,-1.11 -6.5,-3.09 -10.01,-4.94"
         id="path72" />
      <path
         stroke="#997bb2"
         vector-effect="non-scaling-stroke"
         d="m 106.43,173.12 q -0.43,-0.61 -1.24,-0.94 -0.49,-0.2 -0.9,0.13 -5.08,4.09 -10.91,5.91 -0.66,0.2 -0.16,0.67 l 1.18,1.13"
         id="path73" />
      <path
         stroke="#f2d2a4"
         vector-effect="non-scaling-stroke"
         d="m 106.43,173.12 q 0.13,1.83 1.16,3.51 a 0.93,0.92 -48.4 0 1 0.05,0.89 q -0.51,1.07 -1.46,1.67 -0.85,0.54 -2.49,0.28 -4.61,-0.72 -9.29,0.55"
         id="path74" />
      <path
         stroke="#9687d6"
         vector-effect="non-scaling-stroke"
         d="m 69.11,184.3 c -7.78,2.99 -13.09,8.44 -10.25,17.32 q 2.09,6.54 10.27,15.63"
         id="path75" />
      <path
         stroke="#8879c8"
         vector-effect="non-scaling-stroke"
         d="m 69.13,217.25 q 1.26,1.84 4.23,3.6 0.75,0.44 0.73,-0.43 -0.17,-7.75 2.97,-13.98"
         id="path76" />
      <path
         stroke="#9687d6"
         vector-effect="non-scaling-stroke"
         d="m 77.06,206.44 q 1.38,-2.55 2.44,-3.38 2.21,-1.73 0.8,0.69 -0.06,0.11 -0.24,0.99 -0.11,0.5 0.01,1.01 2.25,10.07 6.73,19.25"
         id="path77" />
      <path
         stroke="#8879c8"
         vector-effect="non-scaling-stroke"
         d="m 86.8,225 3.63,5.33 q 0.87,1.27 1.18,-0.24 l 1.07,-5.12"
         id="path78" />
      <path
         stroke="#9687d6"
         vector-effect="non-scaling-stroke"
         d="m 92.68,224.97 0.42,-2.83 q 0.17,-1.1 0.69,-0.12 l 6.99,13.16"
         id="path79" />
      <path
         stroke="#9b7178"
         vector-effect="non-scaling-stroke"
         d="m 100.78,235.18 q -3.05,1.85 -0.93,4.22 0.43,0.48 0.88,0.33"
         id="path80" />
      <path
         stroke="#855469"
         vector-effect="non-scaling-stroke"
         d="m 100.73,239.73 q 1.21,0.37 0.97,0.72"
         id="path81" />
      <path
         stroke="#9687d6"
         vector-effect="non-scaling-stroke"
         d="m 101.7,240.45 q -0.84,4.63 -3.11,8.67 -1.39,2.46 -1.42,4.01 c -0.1,4.23 2.45,8.68 5.04,11.87"
         id="path82" />
      <path
         stroke="#8879c8"
         vector-effect="non-scaling-stroke"
         d="m 102.21,265 q 1.98,2.95 5.06,5.24 1.14,0.83 0.86,-0.55 c -1.47,-7.38 1.1,-11.2 5.27,-16.73 3.29,-4.35 -0.28,-9.44 -3.53,-12.81"
         id="path83" />
      <path
         stroke="#855469"
         vector-effect="non-scaling-stroke"
         d="m 109.87,240.15 q 2.11,-1.68 0.85,-3.64"
         id="path84" />
      <path
         stroke="#9b7178"
         vector-effect="non-scaling-stroke"
         d="m 110.72,236.51 q -0.62,-0.89 -1.59,-1.15"
         id="path85" />
      <path
         stroke="#8879c8"
         vector-effect="non-scaling-stroke"
         d="m 109.13,235.36 5.07,-9.55"
         id="path86" />
      <path
         stroke="#9687d6"
         vector-effect="non-scaling-stroke"
         d="m 114.2,225.81 2.13,-3.76 q 0.25,-0.43 0.4,0.05 l 1.15,3.74"
         id="path87" />
      <path
         stroke="#8879c8"
         vector-effect="non-scaling-stroke"
         d="m 117.88,225.84 q -0.42,1.35 0.54,4.6 a 0.45,0.44 -29.5 0 0 0.73,0.2 q 1.94,-1.75 3.25,-4.2 5.19,-9.68 7.35,-19.67"
         id="path88" />
      <path
         stroke="#9687d6"
         vector-effect="non-scaling-stroke"
         d="m 129.75,206.77 q 0.74,-1.67 -0.43,-3.66 -0.28,-0.48 0.25,-0.35 1.05,0.24 1.94,1.51 3.74,5.37 4.51,12.67"
         id="path89" />
      <path
         stroke="#8879c8"
         vector-effect="non-scaling-stroke"
         d="m 136.02,216.94 -0.16,3.46 q -0.02,0.54 0.41,0.21 4.87,-3.61 6.95,-6.19 3.88,-4.8 7.09,-12.54 c 5.41,-13.04 -6.99,-17.45 -16.21,-20.38 q -0.53,-0.17 -0.22,0.29 l 2.58,3.89"
         id="path90" />
      <path
         stroke="#9687d6"
         vector-effect="non-scaling-stroke"
         d="m 136.46,185.68 q 1.99,5.16 0.74,11.05 -0.13,0.61 -0.59,0.19 l -1.87,-1.7"
         id="path91" />
      <path
         stroke="#8879c8"
         vector-effect="non-scaling-stroke"
         d="m 134.74,195.22 q -7.38,-6.5 -16.03,-10.93 -0.45,-0.22 -0.47,0.28 l -0.12,3.77"
         id="path92" />
      <path
         stroke="#9687d6"
         vector-effect="non-scaling-stroke"
         d="m 118.12,188.34 c -2.57,6.98 -7,11.83 -12.81,17.03"
         id="path93" />
      <path
         stroke="#8879c8"
         vector-effect="non-scaling-stroke"
         d="m 105.31,205.37 q -7.57,-5.9 -12.22,-14.69 -1.51,-2.87 -1.25,-6.2 0.05,-0.56 -0.44,-0.28 l -4.68,2.74"
         id="path94" />
      <path
         stroke="#9687d6"
         vector-effect="non-scaling-stroke"
         d="m 86.72,186.94 q -7.21,4.33 -13.37,10.01 -0.39,0.35 -0.57,-0.14 -0.33,-0.9 -0.25,-2.29"
         id="path95" />
      <path
         stroke="#8879c8"
         vector-effect="non-scaling-stroke"
         d="m 72.53,194.52 q -1.05,-7.4 3.72,-12.85 0.75,-0.86 -0.29,-0.4 l -6.85,3.03"
         id="path96" />
      <path
         stroke="#e6e6e6"
         vector-effect="non-scaling-stroke"
         d="m 72.53,194.52 q -2.13,0.9 -3.41,2.56 a 0.58,0.58 0 0 1 -1.03,-0.25 q -1.1,-6.13 1.02,-12.53"
         id="path97" />
      <path
         stroke="#e6e6e6"
         vector-effect="non-scaling-stroke"
         d="m 129.75,206.77 q -2.7,-2.48 -5.13,-5.14 -0.13,-0.15 -0.32,-0.06 -0.28,0.14 -0.13,0.41 c 0.83,1.49 1.59,2.49 1.15,4.4 q -2.3,10.05 -7.44,19.46"
         id="path98" />
      <path
         stroke="#e6e6e6"
         vector-effect="non-scaling-stroke"
         d="m 114.2,225.81 q -1.56,-1.21 -1.67,-3.71 -0.09,-1.78 -0.93,-0.21 l -7.33,13.71"
         id="path99" />
      <path
         stroke="#f9de96"
         vector-effect="non-scaling-stroke"
         d="m 104.27,235.6 q -2.55,0.07 -3.49,-0.42"
         id="path100" />
      <path
         stroke="#e6e6e6"
         vector-effect="non-scaling-stroke"
         d="m 92.68,224.97 q -0.37,0.6 -1.03,0.35 -0.46,-0.18 -0.69,-0.59 -0.68,-1.23 -1.34,-2.6 -0.58,-1.22 -0.92,0.08 -0.2,0.75 -0.61,2.04 -0.37,1.16 -1.29,0.75"
         id="path101" />
      <path
         stroke="#e6e6e6"
         vector-effect="non-scaling-stroke"
         d="m 77.06,206.44 q -1.95,-0.85 -0.58,-3.6 1.31,-2.59 -0.8,-0.59 -5.33,5.04 -6.55,15"
         id="path102" />
      <path
         stroke="#e6e6e6"
         vector-effect="non-scaling-stroke"
         d="m 134.74,195.22 q -0.57,0 -0.96,0.19 -0.49,0.24 -0.46,0.79 0.02,0.56 -0.38,0.93 -0.42,0.37 -0.82,-0.01 -5.36,-4.95 -12.64,-9.86 -0.35,-0.23 -0.7,0 -0.41,0.28 -0.66,1.08"
         id="path103" />
      <path
         stroke="#ebd088"
         vector-effect="non-scaling-stroke"
         d="m 109.13,235.36 -4.86,0.24"
         id="path104" />
      <path
         stroke="#e6e6e6"
         vector-effect="non-scaling-stroke"
         d="m 136.02,216.94 q 6.9,-6.96 10.05,-15.93 c 2.76,-7.88 -1.41,-13.53 -8.46,-16.58 a 0.9,0.9 0 0 0 -1.25,0.69 q -0.04,0.3 0.1,0.56"
         id="path105" />
      <path
         stroke="#e8aa2a"
         vector-effect="non-scaling-stroke"
         d="m 110.72,236.51 -1.11,2.18 q -0.23,0.45 -0.73,0.48 l -8.15,0.56"
         id="path106" />
      <path
         stroke="#e6e6e6"
         vector-effect="non-scaling-stroke"
         d="m 105.31,205.37 q -1.05,1.35 -3.21,0.78 -1.23,-0.32 -2.68,-1.51 -8.77,-7.18 -12.7,-17.7"
         id="path107" />
      <path
         stroke="#d5b37a"
         vector-effect="non-scaling-stroke"
         d="m 109.87,240.15 -4.57,0.13"
         id="path108" />
      <path
         stroke="#e3c188"
         vector-effect="non-scaling-stroke"
         d="m 105.3,240.28 -3.6,0.17"
         id="path109" />
      <path
         stroke="#e6e6e6"
         vector-effect="non-scaling-stroke"
         d="m 102.21,265 0.21,-5.49 q 0.02,-0.48 0.5,-0.49 1.53,-0.02 2.07,-1.37 1.23,-3.1 2.55,-6.62 0.52,-1.4 0.13,-3.41 -0.74,-3.82 -2.37,-7.34"
         id="path110" />
      <path
         stroke="#9687d6"
         vector-effect="non-scaling-stroke"
         d="m 57.42,209.07 q -0.12,-0.25 -0.38,-0.35 a 0.23,0.23 0 0 0 -0.31,0.25 c 1.34,9.99 10.03,17.81 19.79,19.55 q 1.88,0.33 0.24,-0.65 C 68.66,223 61.63,217.76 57.42,209.07"
         id="path111" />
      <path
         stroke="#9687d6"
         vector-effect="non-scaling-stroke"
         d="m 132.81,228.68 c 8.25,-1.66 14.86,-6.21 18.71,-13.86 q 1.22,-2.42 1.34,-5.12 0.09,-2.01 -0.76,-0.18 c -3.76,8.13 -11.86,14.38 -19.68,18.65 q -0.14,0.08 -0.05,0.21 0.07,0.11 0.16,0.21 0.12,0.13 0.28,0.09"
         id="path112" />
      <path
         stroke="#9687d6"
         vector-effect="non-scaling-stroke"
         d="m 79.96,220.36 q -1.12,-2.92 -0.74,0.18 c 0.8,6.36 4.58,12.82 10.59,15.67 q 2.29,1.09 0.37,-0.56 -6.47,-5.54 -10.22,-15.29"
         id="path113" />
      <path
         stroke="#9687d6"
         vector-effect="non-scaling-stroke"
         d="m 130.16,219.37 c -2.12,6.49 -5.75,12.39 -10.95,16.57 q -0.5,0.4 0.11,0.58 0.23,0.06 0.44,-0.05 9.71,-5.26 10.95,-16.95 0.02,-0.15 -0.13,-0.18 l -0.26,-0.06 q -0.12,-0.03 -0.16,0.09"
         id="path114" />
      <path
         stroke="#fddf5c"
         vector-effect="non-scaling-stroke"
         d="m 77.68,82.07 q 1.1,-0.12 0.95,-1.18 -0.32,-2.16 -0.9,-4.17 A 0.9,0.9 0 0 0 76.17,76.4 q -0.49,0.61 -0.04,1.2 0.33,0.43 0.32,0.96 -0.01,1.73 0.69,3.2 a 0.54,0.53 74.6 0 0 0.54,0.31"
         id="path115" />
      <path
         stroke="#f2d2a4"
         vector-effect="non-scaling-stroke"
         d="m 116.08,116.96 q -0.77,5.79 4.9,8.83 1.26,0.67 3.67,-0.2 a 0.58,0.48 -50.7 0 1 0.2,-0.04 l 5.98,0.11 q 1.1,0.02 0.2,-0.62 -0.73,-0.52 -0.17,-1.15 0.34,-0.39 0.85,-0.45 2.84,-0.33 5.42,-1.33 4.73,-1.83 3.59,-6.72"
         id="path116" />
      <path
         stroke="#997bb2"
         vector-effect="non-scaling-stroke"
         d="m 140.72,115.39 q 1.43,-1.32 -2.97,-0.63 -1.25,0.2 -2.16,-0.43 -0.5,-0.35 0.09,-0.48 3.63,-0.86 6.92,-1.79 0.39,-0.11 0.09,0.17 -0.05,0.05 -0.07,-0.02 -0.07,-0.23 -0.29,-0.27 -5.42,-0.83 -9.45,0.12 -4.36,1.02 -9.16,2.16 -3.61,0.86 -7.13,0.87 -0.52,0 -0.52,0.52 l 0.01,1.35"
         id="path117" />
      <path
         stroke="#9171a9"
         vector-effect="non-scaling-stroke"
         d="m 140.72,115.39 q -2.4,5.49 -8.22,6.11 -4.98,0.53 -9.05,0.25 -1.03,-0.07 -0.15,0.49 l 2.96,1.88 q 1.43,0.91 -0.23,0.61 -6.57,-1.21 -9.95,-7.77"
         id="path118" />
      <path
         stroke="#8879c8"
         vector-effect="non-scaling-stroke"
         d="m 124.01,117.15 q -0.65,0.13 -1.3,0.39 -0.73,0.28 0.02,0.48 5.48,1.49 9.03,-1.11 2.12,-1.56 -0.47,-1.12 -3.75,0.64 -7.28,1.36"
         id="path119" />
    </g>
    <path
       fill="#381ab7"
       d="m 126.06526,42.891833 q 2.71422,-2.439 6.42492,-4.251643 c 5.6562,-2.752179 9.74651,0.930047 12.62206,5.523339 q 0.33216,0.521965 0.74024,0.05694 2.85657,-3.321596 7.57324,-5.931421 7.71559,-4.270623 14.62451,-7.098724 2.88504,-1.186285 5.84601,0.237257 c 4.31808,2.059389 5.5613,6.832996 3.33109,10.932794 -1.5564,2.866063 -2.62881,6.140208 -3.69172,9.234036 q -0.53145,1.565895 -1.60385,2.932495 c -1.08189,1.37609 -0.42707,3.179241 -0.98699,4.85902 q -5.16271,15.658951 -10.05969,32.086614 -0.63585,2.125821 1.51844,2.676257 2.08786,0.540945 4.47941,2.258685 c 6.93739,4.972908 7.15566,13.267398 2.46747,20.138358 q -1.2622,1.85061 -1.82213,4.07133 c -1.20527,4.89699 -4.51737,10.56268 -10.04071,10.67656 a 1.2811869,1.2811869 0 0 0 -0.84463,2.23022 c 2.79962,2.57186 2.59084,6.81401 3.33108,10.17357 q 1.67029,7.52578 5.84601,14.06458 1.61334,2.5339 0.72126,5.77958 -0.16133,0.5884 0.20879,1.0724 c 10.87585,14.15949 5.73212,31.17554 -8.03827,40.75123 q -0.56941,0.39859 -0.63585,1.09138 c -1.31914,13.87478 -13.69446,23.8111 -27.25606,25.67119 a 1.3571091,1.3760897 16.1 0 0 -0.83515,0.46503 q -3.64426,4.35603 -8.37041,5.98836 a 0.73075105,0.73075105 0 0 0 -0.46503,0.89209 q 1.37609,5.04882 -0.34165,9.31944 c -1.60385,3.98592 -6.22562,6.80453 -5.59926,11.53069 0.31318,2.27766 0.90158,4.8685 -0.1898,6.99432 q -2.61932,5.09628 -8.01929,4.58381 -2.78065,-0.26573 -6.18765,-3.49242 c -7.070257,-6.69065 -15.032596,-19.09443 -8.579211,-28.24305 q 0.370121,-0.52197 -0.265727,-0.60738 -7.108215,-0.99648 -12.176021,-6.94688 -0.398592,-0.46502 -0.996478,-0.55044 -17.120454,-2.49594 -24.930949,-17.52853 -1.803152,-3.46395 -2.07837,-8.18062 -0.02847,-0.5884 -0.512474,-0.92055 C 37.179364,195.78014 32.595562,179.68463 42.807096,164.95573 q 0.673809,-0.96801 0.389101,-2.11633 c -0.455533,-1.82213 -0.01898,-3.76764 0.958518,-5.34303 q 5.238631,-8.41787 6.510327,-18.56297 c 0.246747,-1.94551 0.939537,-3.92898 2.42002,-5.2766 a 1.4994632,1.4994632 0 0 0 -0.559926,-2.54339 c -4.726156,-1.50895 -7.108215,-6.24459 -8.294499,-10.76197 -0.740242,-2.80912 -2.76167,-4.90647 -3.79611,-7.6112 q -3.50191,-9.12015 3.321596,-15.450161 C 45.03731,96.103796 46.593715,95.467947 48.045727,94.5379 Q 48.463299,94.281663 48.51075,93.797659 48.833419,90.808223 48.377886,89.29927 43.718162,73.69726 39.267224,60.458329 38.621885,58.541294 38.602905,56.614768 c -0.0095,-1.945506 -1.812643,-3.49242 -2.429511,-5.428436 Q 34.64546,46.355783 32.481678,41.952296 C 29.008239,34.891532 36.00257,28.55203 42.920979,31.531976 q 8.066733,3.49242 15.288831,7.715592 3.49242,2.040409 5.864988,4.972904 0.389102,0.484003 0.702281,-0.05694 c 2.847081,-4.944433 7.354961,-8.379911 13.295873,-5.162708 q 3.444968,1.869583 5.940911,4.090307 0.531455,0.474514 0.398591,-0.227767 c -1.926525,-9.917335 8.455834,-19.9011 15.953146,-25.187186 3.18874,-2.249193 6.57676,-2.021427 9.63263,0.227766 7.44038,5.45691 17.54752,15.355264 15.6115,24.722164 q -0.18031,0.835144 0.45553,0.265728 z M 104.78807,23.949249 c -3.9005,2.733195 -15.250868,12.527159 -12.498689,17.822731 1.527934,2.923005 3.786619,5.105767 4.716666,8.446344 q 1.167304,4.137759 0.569416,9.907845 -2.011938,19.407609 -21.400566,19.493022 -0.616868,-0.246747 -1.869584,-0.265728 -8.427363,-0.455533 -13.163009,-7.070254 -2.448491,-3.407007 -3.758149,-7.108214 -1.0724,-3.017907 0.227767,-7.146176 c 1.072401,-3.435479 2.486452,-8.370421 -1.328638,-10.866363 q -6.728604,-4.412977 -15.583029,-8.237557 -1.02495,-0.446043 -0.635848,0.597887 l 3.331086,9.02525 q 0.36063,0.977498 1.300167,1.433031 l 3.264654,1.603856 q 0.626358,0.303689 0.32267,0.939537 l -1.831623,3.881522 a 1.4045605,1.3665994 49.5 0 0 -0.06643,1.02495 l 9.414351,29.799458 0.208786,0.901576 q 0.123374,0.521965 0.664319,0.465023 l 17.908146,-1.907545 2.733199,-0.218276 2.647786,-0.389101 q 10.837892,-1.06291 21.799152,-2.363078 c 2.5339,-0.303689 4.75463,-0.227767 7.15567,0.03796 q 21.53343,2.382058 43.93997,4.934942 0.84463,0.0949 1.10087,-0.71177 l 9.59467,-30.463778 q 0.17082,-0.540945 -0.0759,-1.06291 l -1.90755,-4.033367 q -0.26572,-0.540945 0.28471,-0.806673 l 3.35956,-1.613346 q 1.20526,-0.578907 1.60386,-1.860094 1.34762,-4.299093 3.2172,-8.522265 0.56942,-1.281187 -0.72126,-0.730751 -7.64916,3.302615 -14.46317,7.478335 c -2.01194,1.233736 -3.86255,2.904024 -3.67275,5.466398 q 0.26573,3.625284 1.48049,7.544767 0.8731,2.828101 -0.009,5.447417 c -2.09738,6.26358 -6.30157,12.176021 -12.93527,13.912741 q -8.8734,2.315626 -16.59849,-1.157814 c -9.57569,-4.318074 -11.77743,-15.29832 -10.61013,-25.054322 0.44604,-3.691716 2.43901,-6.576759 4.5838,-9.499763 0.9775,-1.328638 1.42354,-3.093829 0.81617,-4.669215 -2.22073,-5.713144 -7.59222,-10.77146 -12.52716,-14.28286 q -0.44604,-0.313183 -0.5884,-0.123373 z M 73.394247,45.634522 c -2.002448,1.898055 -7.383433,8.446343 -4.099798,11.189032 5.058316,4.232662 4.232662,12.033667 3.682226,17.889165 q -0.03796,0.474514 0.427062,0.569417 1.489973,0.322669 2.809121,0.05694 4.887491,0.71177 9.044231,-1.319148 0.493494,-0.237257 0.180315,-0.6833 C 82.039886,68.515571 78.300718,60.51527 81.404037,54.878048 q 1.442522,-2.628806 -1.252716,-5.134238 -2.970455,-2.771159 -5.808047,-4.080817 -0.208786,-0.104393 -0.446043,-0.08541 -0.208785,0.01899 -0.502984,0.05694 z m 52.253443,28.717567 q 5.21965,1.973977 10.90433,0.949027 0.49349,-0.0949 0.41756,-0.588397 -0.33215,-2.363078 -0.31317,-4.631253 c 0.0474,-5.447417 -0.27522,-9.708549 4.07132,-13.419246 0.91107,-0.778203 1.1768,-2.201744 0.82566,-3.293125 q -1.38558,-4.289604 -5.23863,-7.98132 -3.77713,1.556405 -7.09873,4.906471 c -1.22424,1.233736 -1.80315,2.533903 -0.92055,4.185211 3.2172,6.035813 -0.25624,13.523639 -3.75815,18.75278 q -0.25624,0.379611 0.0949,0.6833 0.34165,0.294198 1.01546,0.436552 z m -45.391975,13.55211 q -0.607378,0.01898 -0.939538,0.161335 l -1.328638,0.227767 q -1.452012,-0.161335 -3.340576,0.284707 l -17.889165,2.040409 q -0.446043,0.04745 -0.455534,0.493495 l -0.02847,6.870958 a 0.35114011,0.35114011 0 0 0 0.379611,0.35114 l 19.939064,-1.765191 2.44849,-0.104393 23.611801,-2.144802 50.51673,4.137759 a 0.17082492,0.17082492 0 0 0 0.18031,-0.170824 l -0.0949,-7.411904 q 0,-0.199296 -0.20879,-0.227766 l -48.40039,-5.362005 z m -8.066733,53.354311 q 0.835144,0.37012 1.252716,1.10088 0.256237,0.45553 -0.256237,0.44604 l -5.437927,-0.038 q -0.550436,0 -0.502984,0.55043 0.04745,0.59789 0.559926,1.00597 2.258685,5.6657 6.111736,10.11663 c 1.917035,2.20175 4.289603,4.0998 7.184137,3.37855 q 4.422467,-1.10088 8.655129,-2.23022 0.673809,-0.17082 0.132864,-0.60738 -2.600335,-2.13531 -5.456908,-3.44497 -0.493493,-0.22777 -0.180314,-0.66431 2.11633,-2.91352 4.080817,-6.09276 c 1.898054,-3.07485 3.938463,-3.70121 6.994331,-4.83055 q 1.309658,-0.49349 -0.0095,-0.94903 -0.749732,-0.25624 -1.565895,-0.18031 -0.71177,0.0759 -0.616868,-0.62636 c 0.768712,-6.01684 1.556405,-11.65406 0.911066,-17.76579 q -0.123373,-1.21476 -0.816163,-0.20879 -2.799631,4.03337 -8.645639,5.49487 -0.256237,0.0664 -0.313179,-0.1898 l -0.06643,-0.28471 q -0.01898,-0.0569 0.03796,-0.0759 1.898054,-0.7782 3.302615,-1.87907 0.683299,-0.53146 -0.180316,-0.46502 -2.875552,0.19929 -7.601708,-0.0759 -5.817538,-0.33216 -8.389402,-5.04882 -0.389101,-0.57891 -0.512475,-1.21476 -0.113883,-0.63584 0.502985,-0.46502 2.173272,0.5884 4.18521,0.0569 1.195775,-0.32267 0.0095,-0.64534 l -6.111735,-1.66076 q -0.417572,-0.11388 0.0095,-0.19929 4.175721,-0.7782 7.886418,-0.038 4.280113,0.84463 8.825954,2.05939 3.46395,0.93004 7.725083,0.968 0.502984,0 0.607377,0.48401 2.220724,9.63262 3.055868,18.25928 0.227767,2.30614 0.170825,4.69769 -0.0095,0.54095 -0.521965,0.71177 c -5.276592,1.74621 -6.453386,8.6836 0.398591,9.5567 q 0.854125,0.1044 1.423541,0.72127 0.721261,0.75921 0.673809,1.67029 6.728605,5.846 11.236485,-1.33813 0.59789,-0.94903 1.67028,-1.12935 5.79856,-1.01546 3.99541,-6.12122 -0.71177,-2.02144 -2.91351,-2.90403 -0.66432,-0.26572 0.0285,-0.44604 c 2.7332,-0.6833 5.23863,1.00597 6.55778,3.26465 q 2.13531,3.66325 4.72615,7.35496 0.37012,0.53146 -0.23725,0.74974 -2.65728,0.9775 -4.86851,2.99892 -0.34165,0.31318 0.10439,0.43656 4.75463,1.37609 9.14862,2.35359 2.46747,0.54094 4.47941,-1.3666 5.96938,-5.6657 9.0822,-13.33384 a 0.31317902,0.31317902 0 0 0 -0.29421,-0.42706 l -5.18168,0.0379 q -1.46151,0.019 -0.33217,-0.90157 4.23267,-3.43548 8.68361,-7.92439 3.33108,-3.36904 4.64074,-6.36797 2.04041,-4.69768 2.74269,-10.50573 0.968,-7.9054 0.54095,-15.8108 l -42.35509,-4.488894 q -4.65024,-0.920558 -7.34548,-0.673811 -10.20204,0.939537 -43.674234,4.697685 -1.670288,0.18981 -3.397518,0.2942 a 0.59788719,0.59788719 0 0 0 -0.55991,0.58838 q -0.06643,7.43088 0.939537,16.01009 c 0.569416,4.878 1.72723,9.9553 4.716666,13.43823 q 4.678705,5.42844 10.353888,10.11663 z M 51.737443,101.33294 q -7.696612,3.22669 -3.274144,10.56267 c 0.806673,1.32864 1.936016,2.30614 2.334607,3.86254 q 0.873105,3.34058 2.059389,6.30154 0.35114,0.87311 1.129343,1.34762 0.654829,0.39859 0.540946,-0.36063 -1.651308,-11.35986 -2.239705,-21.37209 -0.03796,-0.55044 -0.550436,-0.34165 z M 158.12341,118.2446 c -0.15185,1.25272 -0.4935,2.47696 -0.59789,3.72968 q -0.25624,2.95148 1.15781,0.35114 1.35712,-2.51492 2.23021,-5.90295 c 0.70229,-2.71422 2.90403,-4.46043 3.63478,-7.16516 q 1.51845,-5.68467 -4.37501,-7.87692 -0.52197,-0.1993 -0.55993,0.36063 -0.55993,8.39889 -1.48997,16.50358 z m -71.4238,1.67978 1.39507,-0.484 q 0.892086,-0.32267 0.01898,-0.70228 -1.129342,-0.4935 -2.372569,-0.60738 -3.331086,-0.30369 -6.377463,-1.02495 -1.072401,-0.25624 -0.417572,0.62636 2.628805,3.53038 6.918409,2.84708 0.313179,-0.0475 0.474514,-0.34165 a 0.65482885,0.68329968 5.2 0 1 0.36063,-0.31318 z m 72.02168,40.60888 c -3.85305,-6.33001 -6.22561,-13.18199 -6.84248,-20.61288 q -0.009,-0.10439 -0.0759,-0.1898 -0.11387,-0.16133 -0.26572,-0.14235 -0.33216,0.0284 -0.40808,0.35114 -0.34165,1.4615 -0.27522,3.0274 0.45553,10.50573 7.40241,18.05999 0.25624,0.27521 0.46502,-0.038 0.14236,-0.21827 0,-0.45553 z M 58.001023,139.99631 c -0.778202,7.67763 -2.989436,14.31133 -6.918409,20.59389 q -0.246747,0.38911 0.218277,0.37961 0.189805,0 0.313179,-0.13286 7.981319,-8.33246 7.260058,-20.80268 a 0.29419847,0.29419847 0 0 0 -0.256237,-0.26572 l -0.313179,-0.0285 q -0.275218,-0.0285 -0.303689,0.25625 z m 2.76167,12.22348 q -3.340577,7.12719 -7.914888,12.4892 -1.527934,1.79366 -3.036887,3.61579 c -7.231589,8.74054 -6.2446,19.29372 1.527933,27.46484 q 3.217203,3.30262 7.392924,5.19118 0.892085,0.3986 0.37961,-0.43654 c -3.644264,-5.87449 -5.153218,-13.04913 -3.558852,-19.63538 0.977498,-4.01439 3.710697,-7.32649 6.804526,-10.08816 6.557779,-5.86499 4.346545,-17.8607 1.376089,-24.98789 q -0.398591,-0.96801 -0.749731,0.019 z m 83.391037,-0.0285 q -1.92653,7.6207 0.49349,14.39675 c 0.98699,2.75218 2.89453,4.11878 4.82106,6.06429 6.35848,6.37746 6.84248,15.35526 3.66325,23.32709 l -2.29666,4.88749 q -0.26572,0.57891 0.29421,0.27522 c 10.58165,-5.74162 17.06351,-15.72538 12.21398,-27.54078 q -1.25272,-3.06536 -3.51141,-5.5613 c -4.26112,-4.70717 -7.56374,-9.34791 -10.48674,-15.3173 q -1.65131,-3.38802 -2.27767,-6.19715 -0.46503,-2.08786 -1.21476,-0.0854 -1.10087,2.91351 -1.69875,5.75109 z m -52.727964,8.04776 q -12.982694,-0.0664 -23.032893,9.79396 -5.058316,4.9729 -7.487826,10.83789 -1.081891,0.43656 -1.992958,3.13179 a 0.31317902,0.31317902 0 0 0 0.427063,0.37961 q 6.500837,-3.05588 10.866363,-7.97184 4.261133,-3.98592 9.651608,-6.62421 1.765191,-0.86362 3.539872,-1.05342 0.673809,-0.0759 0.06643,0.24675 -1.565895,0.81616 -3.09383,1.42354 -3.596813,1.40456 -6.339502,5.34302 -0.778202,0.66432 -1.480483,2.97994 -0.455533,1.48049 0.740242,0.4935 c 2.040409,-1.68927 5.134238,-2.56237 7.668141,-3.35007 q 2.619315,-0.80667 5.475887,-1.0724 c 5.950402,-0.55992 13.96968,-4.17571 16.60798,-10.22102 a 0.53145529,0.53145529 0 0 0 -0.25623,-0.6833 q -5.286091,-2.51493 -11.359866,-3.65375 z m 38.929104,15.88672 6.66217,3.13179 q 0.3891,0.18031 0.28471,-0.23726 -1.37609,-5.5613 -6.91841,-8.12367 l -3.25517,-1.65131 q -1.05342,-0.54094 0.10439,-0.27522 c 6.65269,1.48048 11.47375,6.67166 16.54156,11.1226 q 2.54339,2.6383 6.75707,4.25164 0.72126,0.27522 0.40808,-0.42706 -2.97994,-6.66217 -7.44037,-11.97672 -8.79749,-10.47726 -21.99846,-11.45477 -1.63233,-0.24674 -3.66325,-0.16133 -1.8411,0.0854 -3.42598,0.86361 -3.42599,1.68928 -6.98484,2.55289 a 0.83514408,0.83514408 0 0 0 -0.53146,1.22425 c 3.4165,5.99785 10.48676,9.1676 17.32924,9.81294 q 3.16975,0.2942 6.13072,1.34762 z m -35.417703,2.05939 q 7.886423,3.52089 17.177403,1.11984 2.67625,-0.69278 3.96692,-2.26817 0.42707,-0.53145 -0.22776,-0.71177 c -3.72968,-1.05341 -6.16868,-2.93249 -9.49977,-4.68819 q -0.40808,-0.57891 -1.17679,-0.89209 -0.46502,-0.1898 -0.85412,0.12338 -4.821062,3.88152 -10.353891,5.60875 -0.626358,0.1898 -0.151844,0.63584 z m -24.000901,4.06183 c -7.383433,2.83758 -12.422768,8.00978 -9.72753,16.43714 q 1.983467,6.20664 9.74651,14.8333 1.195775,1.74621 4.014386,3.4165 0.711771,0.41757 0.69279,-0.40808 -0.161334,-7.35497 2.818612,-13.26741 1.309657,-2.42001 2.315626,-3.20771 2.09735,-1.64182 0.759222,0.65483 -0.05694,0.10439 -0.227767,0.93954 -0.104393,0.47451 0.0095,0.95851 2.135312,9.55671 6.386954,18.26878 l 3.44497,5.05832 q 0.825653,1.20526 1.119852,-0.22777 l 1.015459,-4.85902 0.398592,-2.68575 q 0.161334,-1.04393 0.654828,-0.11388 l 6.6337,12.4892 q -2.894532,1.7557 -0.88259,4.00489 0.40808,0.45554 0.83514,0.31318 1.14832,0.35114 0.92056,0.6833 -0.79719,4.394 -2.951479,8.22807 -1.319148,2.33461 -1.347618,3.8056 c -0.0949,4.01439 2.325116,8.23756 4.783097,11.26496 q 1.87907,2.79963 4.80208,4.9729 1.08189,0.78769 0.81616,-0.52197 c -1.39507,-7.00382 1.04393,-10.6291 5.00138,-15.87723 3.1223,-4.12826 -0.26573,-8.95881 -3.35007,-12.15704 q 2.00245,-1.59436 0.80667,-3.45445 -0.58839,-0.84464 -1.50895,-1.09138 l 4.81157,-9.06322 2.02142,-3.56834 q 0.23726,-0.40808 0.37962,0.0475 l 1.09138,3.54936 q -0.39859,1.28119 0.51247,4.36552 a 0.41757203,0.4270623 60.5 0 0 0.69279,0.18981 q 1.84112,-1.66079 3.08435,-3.98591 4.92545,-9.18658 6.97535,-18.66737 0.70228,-1.58488 -0.40809,-3.47344 -0.26572,-0.45553 0.23726,-0.33216 0.99648,0.22777 1.84111,1.43303 3.54936,5.09628 4.28011,12.02418 l -0.15184,3.28363 q -0.019,0.51248 0.3891,0.1993 4.62177,-3.42598 6.59574,-5.87448 3.68222,-4.55532 6.72861,-11.9008 c 5.13424,-12.37531 -6.6337,-16.56053 -15.38374,-19.34118 q -0.50298,-0.16133 -0.20878,0.27522 l 2.44849,3.69172 q 1.88856,4.89698 0.70227,10.48675 -0.12337,0.57891 -0.55992,0.18032 l -1.77468,-1.61335 q -7.00382,-6.16868 -15.21291,-10.37287 -0.42706,-0.20879 -0.44604,0.26573 l -0.11388,3.57783 c -2.439,6.62421 -6.64319,11.22699 -12.15704,16.16194 q -7.18414,-5.59926 -11.597118,-13.94122 -1.43303,-2.7237 -1.186284,-5.88397 0.04746,-0.53145 -0.417571,-0.26572 l -4.441449,2.60033 q -6.842487,4.10929 -12.688495,9.49977 -0.37012,0.33215 -0.540946,-0.13287 -0.313179,-0.85412 -0.237257,-2.17327 -0.996478,-7.0228 3.530382,-12.195 0.711771,-0.81617 -0.275218,-0.37961 z m -11.09413,23.50738 q -0.113883,-0.23725 -0.36063,-0.33216 a 0.21827629,0.21827629 0 0 0 -0.294199,0.23726 c 1.271697,9.48078 9.518745,16.90218 18.781251,18.55348 q 1.784172,0.31319 0.227767,-0.61686 c -7.687121,-4.62176 -14.358783,-9.59467 -18.354189,-17.84172 z m 71.547174,18.61043 c 7.82947,-1.57538 14.10255,-5.89346 17.7563,-13.15352 q 1.15782,-2.29664 1.2717,-4.85902 0.0854,-1.90754 -0.72126,-0.17083 c -3.56835,7.7156 -11.25547,13.64702 -18.67686,17.69937 q -0.13287,0.0759 -0.0475,0.19929 0.0664,0.10439 0.15184,0.19929 0.11389,0.12338 0.26574,0.0854 z m -50.156097,-7.89591 q -1.062911,-2.77116 -0.702281,0.17082 c 0.759222,6.03582 4.346546,12.16654 10.050199,14.87126 q 2.173274,1.03445 0.351141,-0.53145 -6.140207,-5.25761 -9.699059,-14.51063 z m 47.641177,-0.93953 c -2.01195,6.15918 -5.45691,11.75845 -10.39185,15.72538 q -0.47452,0.37961 0.10439,0.55044 0.21827,0.0569 0.41757,-0.0474 9.21506,-4.99189 10.39185,-16.08601 0.019,-0.14236 -0.12337,-0.17084 l -0.24675,-0.0569 q -0.11388,-0.0284 -0.15184,0.0854 z"
       id="path120"
       style="stroke-width:0.949024" />
    <path
       fill="#d28d1b"
       d="m 79.961516,86.082067 q 0.578906,-0.284708 0.275218,-1.489973 -0.256238,-1.005969 0.768712,-1.157814 l 23.336584,-3.50191 a 0.86361486,0.85412461 85.7 0 0 0.74024,-0.863615 l -0.0284,-28.138661 a 1.5564048,1.5658951 23.6 0 0 -0.40808,-1.05342 l -8.066756,-9.05372 a 0.44604284,0.44604284 0 0 1 0.313179,-0.740242 l 3.312107,-0.170825 4.64074,4.773607 a 0.44604284,0.44604284 0 0 0 0.63586,0 l 4.25163,-4.308583 a 0.4270623,0.4270623 0 0 0 0.038,-0.559927 q -2.40104,-3.074848 -5.05832,-4.678704 l 0.0759,-11.189031 q 0.14236,-0.18981 0.5884,0.123373 c 4.93494,3.5114 10.30643,8.569716 12.52716,14.28286 0.60738,1.575386 0.16133,3.340577 -0.81617,4.669215 -2.1448,2.923004 -4.13776,5.808047 -4.5838,9.499763 -1.1673,9.756002 1.03444,20.736248 10.61013,25.054322 q 7.72509,3.47344 16.59849,1.157814 c 6.63368,-1.73672 10.83787,-7.649161 12.93522,-13.912741 q 0.88259,-2.619316 0.009,-5.447417 -1.21474,-3.919483 -1.48047,-7.544768 c -0.18981,-2.562373 1.66079,-4.232661 3.67274,-5.466397 q 6.81401,-4.17572 14.46317,-7.478335 1.29067,-0.550436 0.72126,0.730751 -1.86958,4.223172 -3.2172,8.522265 -0.3986,1.281187 -1.60386,1.860094 l -3.35956,1.613346 q -0.55043,0.265728 -0.28471,0.806673 l 1.90755,4.033367 q 0.24675,0.521965 0.0759,1.06291 l -9.59462,30.463778 q -0.25624,0.806673 -1.10087,0.71177 -22.40653,-2.552884 -43.93996,-4.934942 c -2.40104,-0.265728 -4.62177,-0.34165 -7.15567,-0.03796 q -10.961252,1.300167 -21.799144,2.363078 z"
       id="path121"
       style="stroke-width:0.949024" />
    <path
       fill="#fdc738"
       d="m 104.78807,23.949249 -0.0759,11.189031 -4.50788,4.773607 -3.312107,0.170825 a 0.44604284,0.44604284 0 0 0 -0.313179,0.740242 l 8.066736,9.05372 a 1.5564048,1.5658951 23.6 0 1 0.40808,1.05342 l 0.0285,28.138661 a 0.86361486,0.85412461 85.7 0 1 -0.74023,0.863615 l -23.33658,3.50191 q -1.024949,0.151845 -0.768712,1.157814 0.303689,1.205265 -0.275218,1.489973 l -2.64778,0.389101 -1.138833,-6.851977 q 19.388628,-0.08541 21.400566,-19.493022 0.597888,-5.770086 -0.569416,-9.907845 C 96.076,46.877747 93.817315,44.694985 92.289381,41.77198 89.537202,36.476408 100.88757,26.682444 104.78807,23.949249 Z M 79.06943,85.227942 q 1.04393,-0.113883 0.901576,-1.119852 -0.303689,-2.049899 -0.854125,-3.957444 a 0.85412461,0.85412461 0 0 0 -1.480482,-0.303689 q -0.465023,0.578907 -0.03796,1.138833 0.313179,0.408082 0.303689,0.911066 -0.0095,1.641818 0.654829,3.036888 a 0.51247475,0.5029845 74.6 0 0 0.512475,0.294198 z"
       id="path122"
       style="stroke-width:0.949024" />
    <path
       fill="#381ab7"
       d="m 104.71215,35.13828 q 2.65728,1.603856 5.05832,4.678704 a 0.4270623,0.4270623 0 0 1 -0.038,0.559927 l -4.25164,4.308583 a 0.44604284,0.44604284 0 0 1 -0.63585,0 l -4.64074,-4.773607 z"
       id="path123"
       style="stroke-width:0.949024" />
    <path
       fill="#fdc738"
       d="m 74.305313,79.353463 q -2.08786,-0.132864 -0.189805,5.940912 L 73.726407,84.914763 A 0.63584831,0.61686778 62.8 0 0 73.213932,84.743939 L 55.79928,87.23039 46.384929,57.430932 a 1.4045605,1.3665994 49.5 0 1 0.06643,-1.02495 l 1.831623,-3.881522 q 0.303688,-0.635848 -0.32267,-0.939537 L 44.69566,49.981067 q -0.939537,-0.455533 -1.300167,-1.433031 l -3.331086,-9.02525 q -0.389102,-1.04393 0.635848,-0.597887 8.854425,3.82458 15.583029,8.237557 c 3.81509,2.495942 2.401039,7.430884 1.328638,10.866363 q -1.300167,4.128269 -0.227767,7.146176 1.309658,3.701207 3.758149,7.108214 4.735646,6.614721 13.163009,7.070254 z"
       id="path124"
       style="stroke-width:0.949024" />
    <path
       fill="#d28d1b"
       d="m 76.212858,75.339077 1.888564,-1.679778 q 0.360631,-0.322669 0.284708,-0.806673 l -3.055867,-17.3672 q 1.08189,-0.996479 1.584875,-2.154292 A 0.74973159,0.76871217 36.3 0 0 76.801255,52.52446 q -1.04393,-1.224245 -2.543393,-1.357109 -0.256237,-2.277665 -0.34165,-4.678705 0.34165,-0.313179 -0.521965,-0.854124 0.294199,-0.03796 0.502984,-0.05694 0.237257,-0.01897 0.446043,0.08541 2.837592,1.309658 5.808047,4.080817 2.695238,2.505433 1.252716,5.134239 c -3.103319,5.637222 0.635849,13.637522 4.033367,18.458581 q 0.313179,0.446043 -0.180315,0.6833 -4.15674,2.030918 -9.044231,1.319148 z"
       id="path125"
       style="stroke-width:0.949024" />
    <path
       fill="#fdc738"
       d="m 136.31476,45.387775 -1.42354,5.485378 -1.90755,1.641817 q -0.37012,0.322669 -0.1898,0.778203 0.40808,1.024949 1.34762,2.078369 l -2.8376,17.547516 a 0.95851759,0.95851759 0 0 1 -0.99647,0.797183 q -2.22072,-0.123374 -4.65973,0.635848 -0.67381,-0.142354 -1.01546,-0.436552 -0.35114,-0.303689 -0.0949,-0.6833 c 3.50191,-5.229141 6.97535,-12.716967 3.75815,-18.75278 -0.8826,-1.651308 -0.30369,-2.951475 0.92055,-4.185211 q 3.3216,-3.350066 7.09873,-4.906471 z"
       id="path126"
       style="stroke-width:0.949024" />
    <path
       fill="#d28d1b"
       d="m 136.31476,45.387775 q 3.85305,3.691716 5.23863,7.98132 c 0.35114,1.091381 0.0854,2.514922 -0.82566,3.293125 -4.34654,3.710697 -4.02387,7.971829 -4.07132,13.419246 q -0.019,2.268175 0.31317,4.631253 0.0759,0.493495 -0.41756,0.588397 -5.68468,1.02495 -10.90433,-0.949027 2.43901,-0.759222 4.65973,-0.635848 a 0.95851759,0.95851759 0 0 0 0.99647,-0.797183 l 2.8376,-17.547516 q 1.01546,0 2.32512,-1.281186 a 0.95851759,0.95851759 0 0 0 0.15184,-1.157814 q -0.81617,-1.40456 -1.72723,-2.059389 z"
       id="path127"
       style="stroke-width:0.949024" />
    <path
       fill="#fdc738"
       d="m 73.394247,45.634522 q 0.863615,0.540945 0.521965,0.854124 0.08541,2.40104 0.34165,4.678705 -1.072401,1.091382 -1.366599,2.163783 -0.142355,0.484003 0.284707,0.759222 l 2.154293,1.39507 3.055867,17.3672 q 0.07592,0.484004 -0.284708,0.806673 l -1.888564,1.679778 q -1.319148,0.265728 -2.809121,-0.05694 -0.465023,-0.0949 -0.427062,-0.569417 c 0.550436,-5.855499 1.37609,-13.656503 -3.682226,-17.889165 -3.283635,-2.742689 2.09735,-9.290977 4.099798,-11.189032 z"
       id="path128"
       style="stroke-width:0.949024" />
    <path
       fill="#381ab7"
       d="m 134.89122,50.873153 q 0.91106,0.654829 1.72723,2.059389 a 0.95851759,0.95851759 0 0 1 -0.15184,1.157814 q -1.30966,1.281186 -2.32512,1.281186 -0.93954,-1.05342 -1.34762,-2.078369 -0.18032,-0.455534 0.1898,-0.778203 z"
       id="path129"
       style="stroke-width:0.949024" />
    <path
       fill="#381ab7"
       d="m 74.257862,51.167351 q 1.499463,0.132864 2.543393,1.357109 a 0.74973159,0.76871217 36.3 0 1 0.113883,0.806674 q -0.502985,1.157813 -1.584875,2.154292 l -2.154293,-1.39507 q -0.427062,-0.275219 -0.284707,-0.759222 0.294198,-1.072401 1.366599,-2.163783 z"
       id="path130"
       style="stroke-width:0.949024" />
    <path
       fill="#fcf67f"
       d="m 74.305313,79.353463 q 1.252716,0.01898 1.869584,0.265728 l 1.138833,6.851977 -2.733199,0.218276 -0.370121,-0.04745 q -0.417572,-0.05694 -0.275218,-0.455535 0.180316,-0.502985 0.180316,-0.892086 -1.898055,-6.073775 0.189805,-5.94091 z"
       id="path131"
       style="stroke-width:0.949024" />
    <path
       fill="#fcf67f"
       d="m 79.06943,85.227942 a 0.51247475,0.5029845 74.6 0 1 -0.512475,-0.294198 q -0.664319,-1.39507 -0.654828,-3.036888 0.0095,-0.502984 -0.30369,-0.911066 -0.427061,-0.559926 0.03796,-1.138833 a 0.85412461,0.85412461 0 0 1 1.480483,0.303689 q 0.550436,1.907545 0.854125,3.957444 0.142353,1.005969 -0.901577,1.119852 z"
       id="path132"
       style="stroke-width:0.949024" />
    <path
       fill="#d28d1b"
       d="m 74.115508,85.294375 q 0,0.389101 -0.180316,0.892085 -0.142354,0.398592 0.275218,0.455533 l 0.370121,0.04745 -17.908146,1.907545 q -0.540945,0.05694 -0.664319,-0.465021 L 55.79928,87.230392 73.213932,84.743941 a 0.63584831,0.61686778 62.8 0 1 0.512475,0.170825 z"
       id="path133"
       style="stroke-width:0.949024" />
    <path
       fill="#fdc738"
       d="m 104.64572,85.284884 q 0.34165,5.324043 -0.009,8.180616 -0.13287,1.119852 -1.98346,0.854124 l -23.611827,2.144802 q 0.218276,-3.720187 -1.053421,-8.171125 l 1.328638,-0.227767 1.129343,7.421394 q 0.07592,0.465023 0.540946,0.465023 h 0.493494 q 0.427062,0 0.436552,-0.427062 0.07592,-4.090308 -1.660798,-7.62069 z"
       id="path134"
       style="stroke-width:0.949024" />
    <path
       fill="#d28d1b"
       d="m 104.64572,85.284884 48.40039,5.362005 q 0.20879,0.02847 0.20879,0.227766 l 0.0949,7.411904 a 0.17082492,0.17082492 0 0 1 -0.18031,0.170824 l -50.51673,-4.137759 q 1.85061,0.265728 1.98346,-0.854124 0.35115,-2.856573 0.009,-8.180616 z"
       id="path135"
       style="stroke-width:0.949024" />
    <path
       fill="#fcf67f"
       d="m 79.316177,88.065534 q 0.33216,-0.142354 0.939538,-0.161335 1.736719,3.530382 1.660797,7.62069 -0.0095,0.427062 -0.436553,0.427062 h -0.493493 q -0.465024,0 -0.540946,-0.465023 z"
       id="path136"
       style="stroke-width:0.949024" />
    <path
       fill="#fcf67f"
       d="m 77.987539,88.293301 q 1.271697,4.450938 1.05342,8.171125 l -2.44849,0.104393 -1.945506,-7.990811 q 1.888564,-0.446042 3.340576,-0.284707 z"
       id="path137"
       style="stroke-width:0.949024" />
    <path
       fill="#fdc738"
       d="m 74.646963,88.578008 1.945506,7.990811 -19.939064,1.765191 a 0.35114011,0.35114011 0 0 1 -0.379611,-0.35114 l 0.02847,-6.870958 q 0.0095,-0.446043 0.455534,-0.493495 z"
       id="path138"
       style="stroke-width:0.949024" />
    <path
       fill="#eac89b"
       d="m 111.15605,96.787096 q -3.48293,0.341649 -6.97536,0.37012 -3.55885,0.03796 -6.358479,0.768712 -4.85902,1.290677 -7.801005,1.812642 -11.075149,1.98347 -21.362606,4.34655 a 0.52196504,0.53145529 63.9 0 0 -0.294198,0.84463 q 0.370121,0.43655 0.968008,0.37012 0.427062,-0.0474 0.303689,0.37012 c -0.275218,0.87311 -7.554258,0.56942 -8.759523,4.04286 q -0.455533,1.31915 -0.275218,2.74269 c 1.062911,8.47481 4.175721,18.18336 9.414351,25.30106 q 1.195775,1.62284 2.173273,3.50191 -5.675184,-4.68819 -10.353888,-10.11663 c -2.989436,-3.48292 -4.14725,-8.56022 -4.716666,-13.43822 q -1.005969,-8.57921 -0.939537,-16.01009 a 0.59788719,0.59788719 0 0 1 0.559926,-0.5884 q 1.72723,-0.10439 3.397518,-0.2942 33.472194,-3.758147 43.674235,-4.697684 2.69524,-0.246747 7.34548,0.67381 z"
       id="path139"
       style="stroke-width:0.949024" />
    <path
       fill="#f9dcad"
       d="m 111.15605,96.787096 42.35509,4.488894 -4.87801,16.66492 q -0.60737,2.08786 -1.15781,-0.009 -0.16133,-0.63584 -0.37012,-1.29067 -0.27522,-0.84464 -0.49349,0.009 c -1.94551,7.56375 -6.19715,14.47266 -11.17006,20.66981 q -1.95499,2.43901 -4.49838,1.76519 -0.51248,-0.14235 -0.48401,0.3891 l 0.18981,3.09383 q 0.0569,0.99648 -0.56942,0.22777 -2.78065,-3.35956 -6.87096,-6.00735 a 0.25623738,0.25623738 0 0 0 -0.39859,0.25625 q 0.0759,0.55992 0.37012,1.04392 a 0.34164984,0.34164984 0 0 1 -0.38911,0.50299 q -6.73809,-1.78417 -13.66598,0.6833 -0.6833,0.23725 -0.0949,0.66432 c 1.41405,1.01546 3.40701,3.64426 3.00842,5.61824 q -0.10439,0.52196 -0.55044,0.82565 -2.57186,1.74622 -3.13179,2.8281 -2.60982,4.95393 -8.655126,3.44498 0.04745,-0.91108 -0.673809,-1.67029 -0.569416,-0.61687 -1.423541,-0.72127 c -6.851978,-0.8731 -5.675183,-7.81049 -0.398592,-9.5567 q 0.512476,-0.17082 0.521965,-0.71177 0.05694,-2.39155 -0.170824,-4.69769 -0.835144,-8.62666 -3.055868,-18.25928 -0.104394,-0.48401 -0.607378,-0.48401 -4.261132,-0.038 -7.725082,-0.968 -4.545841,-1.21476 -8.825955,-2.05939 -3.710696,-0.74024 -7.886417,0.038 -0.427062,0.0854 -0.0095,0.19929 l 6.111736,1.6608 q 1.186284,0.32267 -0.0095,0.64534 -2.011938,0.53146 -4.18521,-0.0569 -0.616868,-0.17082 -0.502985,0.46502 0.123374,0.63585 0.512475,1.21476 c -0.427062,3.28363 1.603856,5.59926 4.16623,7.44987 1.698759,1.22424 3.644265,1.28118 5.523339,2.10683 q 1.461502,0.64535 3.530382,0.18032 3.274144,-0.73075 6.130716,-2.2492 a 0.38910121,0.37961094 83.9 0 1 0.550436,0.44605 q -1.973976,6.77605 -2.581354,13.34332 -0.04745,0.45553 -0.31318,0.82566 -2.780649,3.78661 -5.143728,7.95285 -2.220723,3.93846 -6.700132,3.54935 -0.465024,-0.0379 -0.825655,-0.34165 l -7.905397,-6.6337 q -0.512475,-0.40808 -0.559926,-1.00597 -0.04745,-0.55043 0.502984,-0.55043 l 5.437927,0.038 q 0.512474,0.009 0.256237,-0.44604 -0.417572,-0.73076 -1.252716,-1.10088 -0.977498,-1.87907 -2.173273,-3.50191 c -5.23863,-7.11774 -8.35144,-16.82629 -9.414351,-25.3011 q -0.180315,-1.42354 0.275218,-2.74269 c 1.205265,-3.47344 8.484305,-3.16975 8.759523,-4.04286 q 0.123373,-0.41757 -0.303689,-0.37012 -0.597887,0.0664 -0.968008,-0.37012 a 0.52196504,0.53145529 63.9 0 1 0.294198,-0.84463 q 10.287457,-2.36308 21.362606,-4.34655 2.941985,-0.521965 7.801005,-1.812642 2.799629,-0.730751 6.358479,-0.768712 3.49243,-0.02847 6.97536,-0.37012 z m 4.35603,21.552414 q -0.73075,5.49487 4.65024,8.37991 1.19577,0.63584 3.48293,-0.18981 a 0.45553312,0.55043587 39.3 0 1 0.1898,-0.038 l 5.67518,0.10439 q 1.04393,0.019 0.18981,-0.58839 -0.69279,-0.49349 -0.16134,-1.09138 0.32267,-0.37012 0.80668,-0.42706 2.69524,-0.31318 5.14373,-1.26221 4.4889,-1.73672 3.407,-6.37747 1.35711,-1.25271 -2.81861,-0.59788 -1.18628,0.1898 -2.0499,-0.40808 -0.47451,-0.33216 0.0854,-0.45554 3.44497,-0.81616 6.56728,-1.69876 0.37012,-0.10439 0.0854,0.16134 -0.0475,0.0474 -0.0664,-0.019 -0.0664,-0.21827 -0.27521,-0.25624 -5.14373,-0.78769 -8.96831,0.11389 -4.13776,0.96801 -8.69309,2.0499 -3.42599,0.81616 -6.76656,0.82565 -0.4935,0 -0.4935,0.49349 z"
       id="path140"
       style="stroke-width:0.949024" />
    <path
       fill="#f9dcad"
       d="m 51.737443,101.33294 q 0.512475,-0.20879 0.550436,0.34165 0.588397,10.01223 2.239705,21.37209 0.113883,0.75922 -0.540946,0.36063 -0.778203,-0.47451 -1.129343,-1.34762 -1.186284,-2.96096 -2.059389,-6.30154 c -0.398591,-1.5564 -1.527934,-2.5339 -2.334607,-3.86254 q -4.422468,-7.33598 3.274144,-10.56267 z"
       id="path141"
       style="stroke-width:0.949024" />
    <path
       fill="#eac89b"
       d="m 153.51114,101.27599 q 0.42705,7.9054 -0.54095,15.8108 -0.70228,5.80805 -2.74269,10.50573 -1.30966,2.99893 -4.64075,6.36797 -4.45093,4.48891 -8.68359,7.92439 -1.12935,0.92055 0.33216,0.90157 l 5.18168,-0.0379 a 0.31317902,0.31317902 0 0 1 0.29421,0.42706 q -3.11281,7.66814 -9.0822,13.33383 -2.01193,1.90755 -4.47941,1.3666 -4.394,-0.97749 -9.14862,-2.35358 -0.44604,-0.12338 -0.10439,-0.43656 2.21123,-2.02142 4.86851,-2.99892 0.60737,-0.21828 0.23725,-0.74974 -2.59085,-3.69171 -4.72615,-7.35496 c -1.31915,-2.25868 -3.82458,-3.94795 -6.55778,-3.26465 q -0.69279,0.18032 -0.0285,0.44604 2.20175,0.8826 2.91351,2.90403 1.80316,5.10576 -3.9954,6.12123 -1.0724,0.18031 -1.67029,1.12934 -4.50788,7.18413 -11.23648,1.33813 6.04531,1.50895 8.65513,-3.44498 0.55993,-1.08189 3.13179,-2.8281 0.44604,-0.30369 0.55044,-0.82565 c 0.39858,-1.97398 -1.59437,-4.60278 -3.00842,-5.61824 q -0.58839,-0.42707 0.0949,-0.66432 6.9279,-2.46747 13.66599,-0.6833 a 0.34164984,0.34164984 0 0 0 0.3891,-0.50299 q -0.29419,-0.484 -0.37012,-1.04392 a 0.25623738,0.25623738 0 0 1 0.39859,-0.25624 q 4.09031,2.64778 6.87097,6.00734 0.62635,0.76871 0.56941,-0.22777 l -0.1898,-3.09383 q -0.0285,-0.53145 0.484,-0.3891 2.54339,0.67382 4.49839,-1.76519 c 4.9729,-6.19715 9.22454,-13.10606 11.17005,-20.66981 q 0.21828,-0.85413 0.4935,-0.009 0.20878,0.65483 0.37012,1.29067 0.55043,2.09735 1.15781,0.009 z"
       id="path142"
       style="stroke-width:0.949024" />
    <path
       fill="#f9dcad"
       d="m 158.12341,118.2446 q 0.93004,-8.10469 1.48997,-16.50358 0.0379,-0.55993 0.55993,-0.36063 5.89346,2.19225 4.37501,7.87692 c -0.73075,2.70473 -2.93249,4.45094 -3.63478,7.16516 q -0.87309,3.38803 -2.23021,5.90295 -1.41405,2.60034 -1.15781,-0.35114 c 0.10439,-1.25272 0.44604,-2.47696 0.59789,-3.72968 z"
       id="path143"
       style="stroke-width:0.949024" />
    <path
       fill="#381ab7"
       d="m 138.89611,116.84953 q -2.27766,5.21016 -7.801,5.79856 -4.72616,0.50299 -8.5887,0.23726 -0.9775,-0.0664 -0.14235,0.46502 l 2.80912,1.78417 q 1.35711,0.86362 -0.21828,0.57891 -6.23511,-1.14833 -9.44282,-7.37394 l -0.009,-1.28119 q 0,-0.4935 0.49349,-0.4935 3.34058,-0.009 6.76657,-0.82565 4.55533,-1.08189 8.69309,-2.0499 3.82457,-0.90157 8.9683,-0.11388 0.20879,0.038 0.27522,0.25624 0.019,0.0664 0.0664,0.019 0.28472,-0.26573 -0.0854,-0.16134 -3.12231,0.8826 -6.56728,1.69876 -0.55992,0.12337 -0.0854,0.45553 0.86362,0.59789 2.0499,0.40809 4.17572,-0.65483 2.81861,0.59788 z m -15.85824,1.67029 q -0.61687,0.12338 -1.23374,0.37012 -0.69279,0.26573 0.019,0.45553 5.20067,1.41406 8.56972,-1.05342 2.01193,-1.48048 -0.44605,-1.06291 -3.55885,0.60738 -6.90892,1.29068 z"
       id="path144"
       style="stroke-width:0.949024" />
    <path
       fill="#d8d8d8"
       d="m 86.33898,120.23756 q -0.161335,0.2942 -0.474514,0.34165 -4.289604,0.6833 -6.918409,-2.84708 -0.654829,-0.8826 0.417572,-0.62636 3.046377,0.72126 6.377463,1.02495 1.243227,0.11388 2.372569,0.60738 0.873105,0.37961 -0.01898,0.70228 l -1.39507,0.484 a 0.65482885,0.68329968 5.2 0 0 -0.360631,0.31318 z"
       id="path145"
       style="stroke-width:0.949024" />
    <path
       fill="#d8d8d8"
       d="m 123.03787,118.51982 q 3.35006,-0.6833 6.90891,-1.29068 2.45799,-0.41757 0.44605,1.06291 -3.36905,2.46748 -8.56972,1.05342 -0.71177,-0.1898 -0.019,-0.45553 0.61687,-0.24674 1.23374,-0.37012 z"
       id="path146"
       style="stroke-width:0.949024" />
    <path
       fill="#eac89b"
       d="m 138.89611,116.84953 q 1.0819,4.64075 -3.407,6.37747 -2.44849,0.94903 -5.14373,1.2622 -0.48401,0.0569 -0.80668,0.42706 -0.53145,0.5979 0.16134,1.09138 0.85412,0.60738 -0.18981,0.5884 l -5.67518,-0.10439 a 0.45553312,0.55043587 39.3 0 0 -0.1898,0.038 q -2.28716,0.82565 -3.48293,0.18981 -5.38099,-2.88505 -4.65024,-8.37991 3.20771,6.22561 9.44282,7.37394 1.57539,0.28471 0.21828,-0.57891 l -2.80912,-1.78417 q -0.83515,-0.53146 0.14235,-0.46503 3.86254,0.26574 8.5887,-0.23725 5.52334,-0.5884 7.801,-5.79856 z"
       id="path147"
       style="stroke-width:0.949024" />
    <path
       fill="#eac89b"
       d="m 71.372819,117.69417 q 2.571864,4.71666 8.389401,5.04882 4.726156,0.27522 7.601709,0.0759 0.863615,-0.0664 0.180316,0.46503 -1.404561,1.10087 -3.302616,1.87907 -0.05694,0.019 -0.03796,0.0759 l 0.06643,0.28471 q 0.05694,0.25623 0.313179,0.1898 5.846008,-1.4615 8.645639,-5.49487 0.69279,-1.00597 0.816163,0.20879 c 0.645339,6.11173 -0.142353,11.74895 -0.911066,17.76579 q -0.0949,0.70228 0.616868,0.62636 0.816164,-0.0759 1.565895,0.18031 1.319148,0.45554 0.0095,0.94903 c -3.055868,1.12934 -5.096277,1.7557 -6.994331,4.83055 q -1.964487,3.17924 -4.080818,6.09276 -0.313179,0.43655 0.180315,0.66431 2.856573,1.30966 5.456907,3.44497 0.540946,0.43656 -0.132863,0.60738 -4.232662,1.12934 -8.655129,2.23021 c -2.894534,0.72126 -5.267102,-1.17679 -7.184137,-3.37853 q -3.853051,-4.45095 -6.111735,-10.11664 l 7.905397,6.6337 q 0.360631,0.3037 0.825654,0.34165 4.479409,0.38911 6.700133,-3.54935 2.363078,-4.16624 5.143728,-7.95285 0.265728,-0.37013 0.313179,-0.82566 0.607379,-6.56727 2.581355,-13.34332 a 0.38910121,0.37961094 83.9 0 0 -0.550436,-0.44605 q -2.856572,1.51845 -6.130716,2.2492 -2.06888,0.46503 -3.530382,-0.18032 c -1.879074,-0.82565 -3.82458,-0.88259 -5.523339,-2.10683 -2.562374,-1.85061 -4.593292,-4.16624 -4.16623,-7.44987 z"
       id="path148"
       style="stroke-width:0.949024" />
    <path
       fill="#f4f4f4"
       d="m 151.87881,139.92038 c 0.61687,7.43089 2.98943,14.28287 6.84248,20.61288 q 0.14236,0.23726 0,0.45554 -0.20878,0.31317 -0.46502,0.0379 -6.94688,-7.55426 -7.40241,-18.05999 -0.0664,-1.5659 0.27522,-3.0274 0.0759,-0.32267 0.40808,-0.35114 0.15185,-0.019 0.26572,0.14236 0.0664,0.0854 0.0759,0.1898 z"
       id="path149"
       style="stroke-width:0.949024" />
    <path
       fill="#f4f4f4"
       d="m 51.082614,160.5902 c 3.928973,-6.28256 6.140207,-12.91626 6.918409,-20.59389 q 0.02847,-0.28471 0.303689,-0.25624 l 0.313179,0.0284 a 0.29419847,0.29419847 0 0 1 0.256237,0.26572 q 0.721261,12.47022 -7.260058,20.80268 -0.123374,0.13287 -0.313179,0.13287 -0.465024,0.009 -0.218277,-0.37961 z"
       id="path150"
       style="stroke-width:0.949024" />
    <path
       fill="#d8d8d8"
       d="m 51.338851,195.78962 q 0.33216,-0.16133 0.35114,-0.17082 a 0.45553312,0.45553312 0 0 0 0.408082,-0.60738 c -3.14128,-8.60767 -2.002447,-17.01605 5.096277,-23.44097 q 5.219651,-4.71667 5.010864,-12.15704 -0.132863,-4.38451 -1.442521,-7.19362 l 2.220724,-6.36798 q 0.35114,-0.98699 0.749731,-0.019 c 2.970456,7.1272 5.18169,19.12291 -1.376089,24.9879 -3.093829,2.76167 -5.827028,6.07377 -6.804526,10.08816 -1.594366,6.58625 -0.08541,13.7609 3.558852,19.63537 q 0.512475,0.83515 -0.37961,0.43655 -4.175721,-1.88856 -7.392924,-5.19118 z"
       id="path151"
       style="stroke-width:0.949024" />
    <path
       fill="#d8d8d8"
       d="m 153.13153,195.97943 q 0.11388,0.54095 0.23725,0.57891 0.46502,0.15185 0.74973,-0.25624 c 2.35359,-3.47344 5.14373,-6.97535 6.0548,-11.17005 1.65131,-7.62069 -1.53743,-13.86529 -6.76657,-19.48353 q -1.7557,-1.89805 -3.33109,-4.33706 -2.923,-4.50788 -5.92192,-9.12015 0.59788,-2.83759 1.69875,-5.7511 0.74973,-2.00245 1.21476,0.0854 0.62636,2.80912 2.27767,6.19715 c 2.923,5.96938 6.22562,10.61013 10.48674,15.3173 q 2.25869,2.49594 3.51141,5.56129 c 4.84953,11.8154 -1.63233,21.79917 -12.21398,27.54078 q -0.55993,0.30369 -0.29421,-0.27522 z"
       id="path152"
       style="stroke-width:0.949024" />
    <path
       fill="#f4f4f4"
       d="m 144.15373,152.19131 q 2.99892,4.61227 5.92192,9.12015 1.57539,2.43901 3.33109,4.33706 c 5.22914,5.61824 8.41788,11.86284 6.76657,19.48353 -0.91107,4.1947 -3.70121,7.69661 -6.0548,11.17005 q -0.28471,0.40809 -0.74973,0.25624 -0.12337,-0.0379 -0.23725,-0.57891 c 3.17923,-7.97183 2.69523,-16.94963 -3.66325,-23.32709 -1.92653,-1.94551 -3.83407,-3.31211 -4.82106,-6.06429 q -2.42002,-6.77605 -0.49349,-14.39674 z"
       id="path153"
       style="stroke-width:0.949024" />
    <path
       fill="#f4f4f4"
       d="m 60.762693,152.21979 q 1.309658,2.80911 1.442521,7.19362 0.208787,7.44037 -5.010864,12.15704 c -7.098724,6.42492 -8.237557,14.8333 -5.096277,23.44097 a 0.45553312,0.45553312 0 0 1 -0.408082,0.60738 q -0.01898,0.009 -0.35114,0.17082 c -7.772533,-8.17112 -8.759522,-18.7243 -1.527933,-27.46484 q 1.508953,-1.82213 3.036887,-3.61579 4.574311,-5.36201 7.914888,-12.4892 z"
       id="path154"
       style="stroke-width:0.949024" />
    <path
       fill="#d8d8d8"
       d="m 74.030095,175.74617 q 5.89346,-0.67381 11.094129,-1.48997 0.920558,-0.15184 1.831623,-0.64534 0.844635,-0.46503 1.755701,-0.76872 6.339503,-2.13531 9.879375,-7.8959 a 0.90157598,0.90157598 0 0 0 -0.626359,-1.35711 q -4.308584,-0.69279 -6.538798,-3.35006 6.073775,1.13882 11.359864,3.65375 a 0.53145529,0.53145529 0 0 1 0.25623,0.6833 c -2.6383,6.0453 -10.657576,9.6611 -16.607978,10.22102 q -2.856572,0.26573 -5.475887,1.0724 c -2.533903,0.78769 -5.627732,1.6608 -7.668141,3.35007 q -1.195775,0.98699 -0.740242,-0.49349 0.702281,-2.31563 1.480483,-2.97995 z"
       id="path155"
       style="stroke-width:0.949024" />
    <path
       fill="#f4f4f4"
       d="m 91.425766,160.23907 q 2.230214,2.65727 6.538798,3.35006 a 0.90157598,0.90157598 0 0 1 0.626359,1.35711 q -3.539872,5.76059 -9.879375,7.8959 -0.911066,0.30369 -1.755701,0.76872 -0.911065,0.4935 -1.831623,0.64534 -5.200669,0.81616 -11.094129,1.48997 2.742689,-3.93847 6.339502,-5.34302 1.527935,-0.60738 3.09383,-1.42354 0.607377,-0.32267 -0.06643,-0.24675 -1.774681,0.1898 -3.539872,1.05342 -5.390475,2.63829 -9.651608,6.62421 -0.0949,-2.6383 2.495942,-4.29909 0.151845,-0.1044 0.170825,-0.28471 0.0095,-0.13287 -0.113884,-0.22777 -0.275217,-0.22777 -0.578907,-0.0284 -5.675183,3.65375 -11.274444,9.30047 2.42951,-5.865 7.487826,-10.83789 10.050199,-9.8604 23.032893,-9.79397 z"
       id="path156"
       style="stroke-width:0.949024" />
    <path
       fill="#f4f4f4"
       d="m 121.50044,160.48581 q 8.93035,3.19822 15.07056,9.11067 3.56834,3.43547 4.47941,4.55532 2.11633,2.60034 2.72371,5.94092 c -5.06781,-4.45094 -9.88887,-9.64212 -16.54156,-11.1226 q -1.15781,-0.26573 -0.10439,0.27521 l 3.25517,1.65131 q 0.43655,2.10684 1.06291,3.96694 0.33216,0.97749 -1.09138,1.2622 -2.96097,-1.05342 -6.13072,-1.34762 c -6.84248,-0.64534 -13.91274,-3.81509 -17.32924,-9.81294 a 0.83514408,0.83514408 0 0 1 0.53146,-1.22424 q 3.55885,-0.86362 6.98484,-2.55289 1.58488,-0.7782 3.42598,-0.86362 2.03092,-0.0854 3.66325,0.16134 z"
       id="path157"
       style="stroke-width:0.949024" />
    <path
       fill="#d8d8d8"
       d="m 121.50044,160.48581 q 13.20097,0.9775 21.99846,11.45476 4.46043,5.31455 7.44037,11.97672 0.31318,0.70229 -0.40808,0.42707 -4.21368,-1.61335 -6.75707,-4.25164 -0.60738,-3.34058 -2.72371,-5.94092 -0.91107,-1.11985 -4.47941,-4.55532 -6.14021,-5.91245 -15.07056,-9.11067 z"
       id="path158"
       style="stroke-width:0.949024" />
    <path
       fill="#f9dcad"
       d="m 106.35396,171.63688 q 0.12338,1.73672 1.10088,3.33109 a 0.8731051,0.88259544 41.6 0 1 0.0474,0.84463 q -0.48401,1.01546 -1.38558,1.58488 -0.80667,0.51247 -2.36308,0.26572 -4.375019,-0.68329 -8.816467,0.52197 l -1.119851,-1.0724 q -0.474514,-0.44604 0.151844,-0.63585 5.532829,-1.72723 10.353884,-5.60875 0.38911,-0.31318 0.85413,-0.12337 0.76871,0.31317 1.17679,0.89208 z"
       id="path159"
       style="stroke-width:0.949024" />
    <path
       fill="#d8d8d8"
       d="m 130.38334,170.89664 q 5.54232,2.56237 6.91841,8.12368 0.10439,0.41757 -0.28471,0.23725 l -6.66217,-3.13179 q 1.42354,-0.28471 1.09138,-1.2622 -0.62636,-1.8601 -1.06291,-3.96694 z"
       id="path160"
       style="stroke-width:0.949024" />
    <path
       fill="#d8d8d8"
       d="m 70.205515,176.41049 q -4.365526,4.91596 -10.866363,7.97183 a 0.31317902,0.31317902 0 0 1 -0.427063,-0.37961 q 0.911067,-2.69524 1.992958,-3.13179 5.599261,-5.64671 11.274444,-9.30047 0.30369,-0.1993 0.578907,0.0284 0.123374,0.0949 0.113884,0.22777 -0.01898,0.18031 -0.170825,0.28471 -2.590845,1.66079 -2.495942,4.29909 z"
       id="path161"
       style="stroke-width:0.949024" />
    <path
       fill="#eac89b"
       d="m 106.35396,171.63688 c 3.33109,1.7557 5.77009,3.63478 9.49977,4.68819 q 0.65483,0.18032 0.22776,0.71177 -1.29067,1.57539 -3.96692,2.26818 -9.29098,2.40104 -17.177403,-1.11985 4.441448,-1.20526 8.816463,-0.52197 1.55641,0.24675 2.36308,-0.26572 0.90157,-0.56942 1.38558,-1.58488 a 0.8731051,0.88259544 41.6 0 0 -0.0474,-0.84463 q -0.97749,-1.59437 -1.10087,-3.33109 z"
       id="path162"
       style="stroke-width:0.949024" />
    <path
       fill="#d8d8d8"
       d="m 74.181939,191.94606 q -2.021428,0.85413 -3.236183,2.42951 a 0.55043587,0.55043587 0 0 1 -0.977498,-0.23725 q -1.04393,-5.81754 0.968008,-11.89131 l 6.500837,-2.87555 q 0.986989,-0.43656 0.275218,0.3796 -4.52686,5.1722 -3.530382,12.195 z"
       id="path163"
       style="stroke-width:0.949024" />
    <path
       fill="#d8d8d8"
       d="m 134.43568,213.22326 q 6.5483,-6.60523 9.53773,-15.11801 c 2.61932,-7.47833 -1.33813,-12.84034 -8.02877,-15.73487 a 0.85412461,0.85412461 0 0 0 -1.18628,0.65483 q -0.038,0.28471 0.0949,0.53145 l -2.44849,-3.69172 q -0.2942,-0.43654 0.20878,-0.27521 c 8.75004,2.78065 20.51798,6.96586 15.38374,19.34118 q -3.04639,7.34547 -6.72861,11.9008 -1.97397,2.44849 -6.59574,5.87448 -0.40808,0.31318 -0.3891,-0.1993 z"
       id="path164"
       style="stroke-width:0.949024" />
    <path
       fill="#d8d8d8"
       d="m 105.29106,202.24301 q -0.99649,1.28119 -3.04638,0.74024 -1.16731,-0.30368 -2.543396,-1.43303 -8.32297,-6.81401 -12.052647,-16.79778 l 4.441449,-2.60034 q 0.465023,-0.26573 0.417571,0.26573 -0.246747,3.16026 1.186284,5.88397 4.412978,8.34196 11.597119,13.94121 z"
       id="path165"
       style="stroke-width:0.949024" />
    <path
       fill="#d8d8d8"
       d="m 133.22093,192.61039 q -0.54095,0 -0.91107,0.18031 -0.46502,0.22777 -0.43655,0.74974 0.019,0.53144 -0.36063,0.88259 -0.39859,0.35114 -0.7782,-0.009 -5.08679,-4.69768 -11.99571,-9.35741 -0.33216,-0.21828 -0.66431,0 -0.38911,0.26573 -0.62636,1.02495 l 0.11388,-3.57783 q 0.019,-0.47452 0.44604,-0.26573 8.20909,4.20419 15.21291,10.37287 z"
       id="path166"
       style="stroke-width:0.949024" />
    <path
       fill="#f4f4f4"
       d="m 70.936266,182.24701 q -2.011938,6.07377 -0.968008,11.89131 a 0.55043587,0.55043587 0 0 0 0.977498,0.23725 q 1.214755,-1.57538 3.236183,-2.42951 -0.07592,1.31915 0.237257,2.17328 0.170825,0.46502 0.540946,0.13286 5.846008,-5.39047 12.688495,-9.49976 3.729677,9.98377 12.052647,16.79778 1.376086,1.12935 2.543396,1.43303 2.04989,0.54095 3.04638,-0.74024 c 5.51385,-4.93494 9.71804,-9.53772 12.15704,-16.16193 q 0.23725,-0.75922 0.62636,-1.02495 0.33215,-0.21828 0.66431,0 6.90892,4.65972 11.99571,9.3574 0.37961,0.36064 0.7782,0.009 0.37961,-0.35115 0.36063,-0.8826 -0.0284,-0.52197 0.43655,-0.74973 0.37012,-0.18032 0.91107,-0.18032 l 1.77468,1.61335 q 0.43655,0.39859 0.55992,-0.18031 1.18629,-5.58977 -0.70227,-10.48676 -0.13286,-0.24674 -0.0949,-0.53146 a 0.85412461,0.85412461 0 0 1 1.18628,-0.65482 c 6.69064,2.89453 10.64809,8.25653 8.02877,15.73487 q -2.98943,8.51278 -9.53773,15.11801 -0.73075,-6.9279 -4.28011,-12.02418 -0.84463,-1.20527 -1.84111,-1.43303 -0.50298,-0.12338 -0.23726,0.33216 1.11037,1.88856 0.40809,3.47344 -2.56238,-2.35359 -4.86852,-4.878 -0.12337,-0.14236 -0.30369,-0.0569 -0.26572,0.13286 -0.12337,0.3891 c 0.78769,1.41405 1.50895,2.36308 1.09138,4.17572 q -2.18276,9.53772 -7.06076,18.46807 l -1.09138,-3.54936 q -0.14236,-0.45553 -0.37962,-0.0474 l -2.02142,3.56834 q -1.48048,-1.14833 -1.58488,-3.5209 -0.0854,-1.68927 -0.88259,-0.19929 l -6.95637,13.01118 q -2.42002,0.0664 -3.31211,-0.39859 l -6.6337,-12.48918 q -0.493493,-0.93004 -0.654828,0.11388 l -0.398592,2.68575 q -0.35114,0.56942 -0.977498,0.33216 -0.436552,-0.17083 -0.654829,-0.55992 -0.645338,-1.16731 -1.271696,-2.46748 -0.550436,-1.15781 -0.873106,0.0759 -0.189805,0.71178 -0.578906,1.93602 -0.35114,1.10087 -1.224246,0.71177 -4.251642,-8.71207 -6.386953,-18.26878 -0.113884,-0.484 -0.0095,-0.95852 0.170825,-0.83514 0.227766,-0.93954 1.338129,-2.29664 -0.759221,-0.65482 -1.005969,0.78769 -2.315627,3.20771 -1.850603,-0.80667 -0.550436,-3.41649 1.243226,-2.45799 -0.759222,-0.55993 -5.058317,4.7831 -6.216131,14.23541 -7.763042,-8.62666 -9.746509,-14.8333 c -2.695238,-8.42736 2.344097,-13.59957 9.72753,-16.43715 z"
       id="path167"
       style="stroke-width:0.949024" />
    <path
       fill="#d8d8d8"
       d="m 78.481034,203.25847 q -2.979946,5.91244 -2.818612,13.26741 0.01898,0.82565 -0.69279,0.40808 -2.818611,-1.67029 -4.014386,-3.4165 1.157814,-9.45231 6.21613,-14.23541 2.002447,-1.89806 0.759221,0.55993 -1.300167,2.60982 0.550437,3.41649 z"
       id="path168"
       style="stroke-width:0.949024" />
    <path
       fill="#d8d8d8"
       d="m 128.48529,203.57165 q -2.0499,9.48079 -6.97535,18.66737 -1.24323,2.32512 -3.08435,3.98591 a 0.41757203,0.4270623 60.5 0 1 -0.69279,-0.18981 q -0.91106,-3.08433 -0.51247,-4.36552 4.878,-8.93034 7.06076,-18.46807 c 0.41757,-1.81264 -0.30369,-2.76167 -1.09138,-4.17572 q -0.14235,-0.25624 0.12337,-0.3891 0.18032,-0.0854 0.30369,0.0569 2.30614,2.52441 4.86852,4.878 z"
       id="path169"
       style="stroke-width:0.949024" />
    <path
       fill="#f4f4f4"
       d="m 59.842136,205.75441 c 3.995406,8.24705 10.667068,13.21996 18.354189,17.84172 q 1.556405,0.93005 -0.227767,0.61686 c -9.262506,-1.6513 -17.509554,-9.0727 -18.781251,-18.55348 a 0.21827629,0.21827629 0 0 1 0.294199,-0.23726 q 0.246747,0.0949 0.36063,0.33216 z"
       id="path170"
       style="stroke-width:0.949024" />
    <path
       fill="#f4f4f4"
       d="m 149.14561,211.21132 c -3.65375,7.26006 -9.92683,11.57814 -17.7563,13.15352 q -0.15185,0.038 -0.26573,-0.0854 -0.0854,-0.0949 -0.15184,-0.19929 -0.0854,-0.12337 0.0474,-0.19929 c 7.4214,-4.05235 15.10852,-9.98377 18.67686,-17.69937 q 0.80668,-1.73671 0.72126,0.17083 -0.11388,2.56238 -1.27169,4.85902 z"
       id="path171"
       style="stroke-width:0.949024" />
    <path
       fill="#f4f4f4"
       d="m 81.233213,216.46893 q 3.558852,9.25302 9.699059,14.51063 1.822133,1.5659 -0.351141,0.53145 c -5.703653,-2.70472 -9.290977,-8.83544 -10.050199,-14.87126 q -0.36063,-2.94198 0.702281,-0.17082 z"
       id="path172"
       style="stroke-width:0.949024" />
    <path
       fill="#f4f4f4"
       d="m 118.48254,231.25478 c 4.93494,-3.96693 8.3799,-9.5662 10.39185,-15.72538 q 0.038,-0.11389 0.15184,-0.0854 l 0.24675,0.0569 q 0.14235,0.0284 0.12337,0.17083 -1.17679,11.09413 -10.39185,16.08601 -0.1993,0.10439 -0.41757,0.0475 -0.57891,-0.17082 -0.10439,-0.55044 z"
       id="path173"
       style="stroke-width:0.949024" />
    <path
       fill="#d8d8d8"
       d="m 113.72791,221.64113 -4.81157,9.06321 -4.61227,0.22777 6.95637,-13.01117 q 0.79718,-1.48997 0.88259,0.1993 0.1044,2.37257 1.58488,3.52089 z"
       id="path174"
       style="stroke-width:0.949024" />
    <path
       fill="#d8d8d8"
       d="m 93.30484,220.84395 -1.015459,4.85902 q -0.294199,1.43303 -1.119852,0.22776 l -3.44497,-5.05831 q 0.873106,0.3891 1.224246,-0.71177 0.389101,-1.22424 0.578906,-1.93602 0.32267,-1.23373 0.873106,-0.0759 0.626358,1.30017 1.271696,2.46748 0.218277,0.38909 0.654829,0.55992 0.626358,0.23726 0.977498,-0.33216 z"
       id="path175"
       style="stroke-width:0.949024" />
    <path
       fill="#fdc738"
       d="m 100.99196,230.53352 q 0.89209,0.46502 3.31211,0.39859 l 4.61227,-0.22777 q 0.92056,0.24675 1.50895,1.09139 l -1.05342,2.06888 q -0.21827,0.42706 -0.69278,0.45553 l -7.73458,0.53145 q -0.42706,0.14235 -0.83514,-0.31318 -2.011942,-2.24919 0.88259,-4.00489 z"
       id="path176"
       style="stroke-width:0.949024" />
    <path
       fill="#d28d1b"
       d="m 110.42529,231.79573 q 1.19578,1.86009 -0.80667,3.45445 l -4.33705,0.12338 -3.4165,0.16133 q 0.22776,-0.33216 -0.92056,-0.6833 l 7.73458,-0.53145 q 0.47451,-0.0285 0.69278,-0.45553 z"
       id="path177"
       style="stroke-width:0.949024" />
    <path
       fill="#d8d8d8"
       d="m 109.61862,235.25018 c 3.08434,3.19823 6.47237,8.02877 3.35007,12.15704 -3.95745,5.24813 -6.39645,8.87341 -5.00138,15.87723 q 0.26573,1.30966 -0.81616,0.52197 -2.92301,-2.17327 -4.80208,-4.97291 l 0.1993,-5.21016 q 0.019,-0.45553 0.47451,-0.46502 1.45201,-0.019 1.96449,-1.30017 1.1673,-2.94198 2.42002,-6.28256 0.49349,-1.32864 0.12337,-3.23619 -0.70228,-3.62528 -2.24919,-6.96585 z"
       id="path178"
       style="stroke-width:0.949024" />
    <path
       fill="#f4f4f4"
       d="m 105.28157,235.37356 q 1.54691,3.34057 2.24919,6.96585 0.37012,1.90755 -0.12337,3.23619 -1.25272,3.34058 -2.42002,6.28256 -0.51248,1.28119 -1.96449,1.30017 -0.45553,0.009 -0.47451,0.46502 l -0.1993,5.21016 c -2.45798,-3.0274 -4.878,-7.25057 -4.783097,-11.26495 q 0.02847,-1.471 1.347619,-3.8056 2.154288,-3.83407 2.951478,-8.22807 z"
       id="path179"
       style="stroke-width:0.949024" />
  </g>
</svg>
