<svg width="13" height="16" viewBox="0 0 13 16" fill="none" xmlns="http://www.w3.org/2000/svg">
<path d="M3.04429 6.83599C3.49092 6.83599 3.92751 6.67856 4.29887 6.38362C4.67022 6.08867 4.95966 5.66946 5.13057 5.17898C5.30149 4.68851 5.34621 4.1488 5.25908 3.62812C5.17194 3.10743 4.95687 2.62915 4.64106 2.25376C4.32525 1.87836 3.92288 1.62271 3.48484 1.51914C3.04679 1.41557 2.59275 1.46873 2.18012 1.67189C1.7675 1.87505 1.41482 2.21909 1.16669 2.66051C0.918554 3.10193 0.786114 3.62089 0.786114 4.15178C0.786768 4.86344 1.02489 5.54572 1.44824 6.04894C1.87159 6.55216 2.44559 6.83521 3.04429 6.83599V6.83599ZM3.04429 3.25704C3.19317 3.25704 3.3387 3.30952 3.46248 3.40783C3.58627 3.50615 3.68275 3.64589 3.73972 3.80938C3.79669 3.97287 3.8116 4.15277 3.78255 4.32633C3.75351 4.49989 3.68182 4.65932 3.57655 4.78445C3.47128 4.90958 3.33715 4.9948 3.19114 5.02932C3.04513 5.06385 2.89378 5.04613 2.75623 4.97841C2.61869 4.91069 2.50113 4.79601 2.41842 4.64887C2.33571 4.50173 2.29156 4.32874 2.29156 4.15178C2.2917 3.91453 2.37105 3.68704 2.51218 3.51928C2.65331 3.35152 2.8447 3.2572 3.04429 3.25704V3.25704ZM9.4307 9.05886C8.98407 9.05886 8.54748 9.21628 8.17612 9.51123C7.80477 9.80617 7.51533 10.2254 7.34442 10.7159C7.1735 11.2063 7.12878 11.746 7.21591 12.2667C7.30304 12.7874 7.51812 13.2657 7.83393 13.6411C8.14974 14.0165 8.55211 14.2721 8.99015 14.3757C9.42819 14.4793 9.88224 14.4261 10.2949 14.223C10.7075 14.0198 11.0602 13.6757 11.3083 13.2343C11.5564 12.7929 11.6889 12.274 11.6889 11.7431C11.6882 11.0314 11.4501 10.3491 11.0267 9.8459C10.6034 9.34268 10.0294 9.05963 9.4307 9.05886V9.05886ZM9.4307 12.6378C9.28182 12.6378 9.13629 12.5853 9.01251 12.487C8.88872 12.3887 8.79224 12.249 8.73527 12.0855C8.6783 11.922 8.66339 11.7421 8.69244 11.5685C8.72148 11.3949 8.79317 11.2355 8.89844 11.1104C9.00371 10.9853 9.13783 10.9 9.28385 10.8655C9.42986 10.831 9.58121 10.8487 9.71875 10.9164C9.8563 10.9842 9.97386 11.0988 10.0566 11.246C10.1393 11.3931 10.1834 11.5661 10.1834 11.7431C10.1833 11.9803 10.1039 12.2078 9.96281 12.3756C9.82167 12.5433 9.63029 12.6376 9.4307 12.6378V12.6378ZM12.0387 1.05169C11.9689 0.968582 11.8859 0.902657 11.7946 0.857679C11.7033 0.812701 11.6054 0.789551 11.5065 0.789551C11.4077 0.789551 11.3098 0.812701 11.2185 0.857679C11.1272 0.902657 11.0442 0.968582 10.9744 1.05169L0.436195 13.578C0.365585 13.6609 0.309462 13.7596 0.271055 13.8683C0.232648 13.9771 0.212716 14.0938 0.212406 14.2118C0.212096 14.3297 0.231414 14.4466 0.269248 14.5556C0.307082 14.6647 0.362685 14.7638 0.432858 14.8472C0.50303 14.9306 0.586387 14.9967 0.67813 15.0416C0.769873 15.0866 0.868193 15.1096 0.967429 15.1092C1.06667 15.1088 1.16486 15.0851 1.25636 15.0395C1.34786 14.9938 1.43087 14.9271 1.50059 14.8432L12.0387 2.31684C12.1087 2.23379 12.1641 2.13517 12.2019 2.02663C12.2398 1.91809 12.2593 1.80175 12.2593 1.68426C12.2593 1.56678 12.2398 1.45044 12.2019 1.3419C12.1641 1.23336 12.1087 1.13474 12.0387 1.05169V1.05169Z" fill="#FD9800"/>
</svg>
