<svg width="56" height="57" viewBox="0 0 56 57" fill="none" xmlns="http://www.w3.org/2000/svg">
<rect x="4" y="4.72363" width="48" height="48" rx="24" fill="black"/>
<rect x="4" y="4.72363" width="48" height="48" rx="24" stroke="white" stroke-opacity="0.9" stroke-width="8"/>
<path d="M22.5 29.7236L23.2845 31.2926C23.5499 31.8235 23.6827 32.089 23.86 32.3191C24.0174 32.5232 24.2004 32.7062 24.4046 32.8636C24.6346 33.0409 24.9001 33.1737 25.4311 33.4392L27 34.2236L25.4311 35.0081C24.9001 35.2736 24.6346 35.4063 24.4046 35.5837C24.2004 35.741 24.0174 35.924 23.86 36.1282C23.6827 36.3582 23.5499 36.6237 23.2845 37.1547L22.5 38.7236L21.7155 37.1547C21.4501 36.6237 21.3173 36.3582 21.14 36.1282C20.9826 35.924 20.7996 35.741 20.5954 35.5837C20.3654 35.4063 20.0999 35.2736 19.5689 35.0081L18 34.2236L19.5689 33.4392C20.0999 33.1737 20.3654 33.0409 20.5954 32.8636C20.7996 32.7062 20.9826 32.5232 21.14 32.3191C21.3173 32.089 21.4501 31.8235 21.7155 31.2925L22.5 29.7236Z" stroke="white" stroke-width="2" stroke-linecap="round" stroke-linejoin="round"/>
<path d="M31 18.7236L32.1786 21.7881C32.4606 22.5213 32.6016 22.8879 32.8209 23.1963C33.0153 23.4696 33.254 23.7084 33.5274 23.9027C33.8357 24.122 34.2024 24.263 34.9356 24.545L38 25.7236L34.9356 26.9023C34.2024 27.1843 33.8357 27.3253 33.5274 27.5445C33.254 27.7389 33.0153 27.9777 32.8209 28.251C32.6016 28.5594 32.4606 28.926 32.1786 29.6592L31 32.7236L29.8214 29.6592C29.5394 28.926 29.3984 28.5594 29.1791 28.251C28.9847 27.9777 28.746 27.7389 28.4726 27.5445C28.1643 27.3253 27.7976 27.1843 27.0644 26.9023L24 25.7236L27.0644 24.545C27.7976 24.263 28.1643 24.122 28.4726 23.9027C28.746 23.7084 28.9847 23.4696 29.1791 23.1963C29.3984 22.8879 29.5394 22.5213 29.8214 21.7881L31 18.7236Z" stroke="white" stroke-width="2" stroke-linecap="round" stroke-linejoin="round"/>
</svg>
