<svg width="25" height="24" viewBox="0 0 25 24" fill="none" xmlns="http://www.w3.org/2000/svg">
<path d="M18.2241 12C18.2214 12.1988 18.1445 12.3894 18.0085 12.5344L10.5085 20.0344C10.3627 20.154 10.1777 20.2151 9.98946 20.2059C9.80117 20.1966 9.62305 20.1177 9.48975 19.9844C9.35645 19.8511 9.2775 19.673 9.26825 19.4847C9.259 19.2964 9.32012 19.1114 9.43972 18.9657L16.4147 12L9.43972 5.0344C9.32012 4.88868 9.259 4.70368 9.26825 4.5154C9.2775 4.32711 9.35645 4.14899 9.48975 4.01569C9.62305 3.88239 9.80117 3.80343 9.98946 3.79418C10.1777 3.78494 10.3627 3.84606 10.5085 3.96565L18.0085 11.4657C18.1445 11.6106 18.2214 11.8012 18.2241 12Z" fill="#5EEAD4"/>
</svg>
