<svg width="21" height="23" viewBox="0 0 21 23" fill="none" xmlns="http://www.w3.org/2000/svg">
<path d="M16.7955 4.10815C16.6973 4.02406 16.5825 3.96434 16.4597 3.93337C16.3368 3.9024 16.209 3.90098 16.0855 3.9292C15.1824 4.12957 14.2501 4.13212 13.346 3.9367C12.4419 3.74128 11.5852 3.35202 10.8286 2.79288C10.6871 2.68898 10.519 2.6333 10.3468 2.6333C10.1746 2.6333 10.0065 2.68898 9.86507 2.79288C9.10844 3.35202 8.2517 3.74128 7.34762 3.9367C6.44353 4.13212 5.51123 4.12957 4.60811 3.9292C4.48466 3.90098 4.35681 3.9024 4.23395 3.93337C4.1111 3.96434 3.99636 4.02406 3.89817 4.10815C3.80011 4.19236 3.72112 4.29876 3.66701 4.41953C3.61289 4.5403 3.58502 4.67237 3.58545 4.80604V11.4718C3.5847 12.7547 3.87347 14.0191 4.4277 15.1599C4.98193 16.3007 5.78558 17.2848 6.77175 18.0302L9.85662 20.3566C9.99976 20.4645 10.1711 20.5224 10.3468 20.5224C10.5225 20.5224 10.6939 20.4645 10.837 20.3566L13.9219 18.0302C14.9081 17.2848 15.7117 16.3007 16.2659 15.1599C16.8202 14.0191 17.1089 12.7547 17.1082 11.4718V4.80604C17.1086 4.67237 17.0807 4.5403 17.0266 4.41953C16.9725 4.29876 16.8935 4.19236 16.7955 4.10815ZM15.4178 11.4718C15.4185 12.4692 15.1941 13.4524 14.7634 14.3395C14.3327 15.2266 13.708 15.9919 12.9415 16.5718L10.3468 18.5313L7.75215 16.5718C6.98561 15.9919 6.36098 15.2266 5.93025 14.3395C5.49952 13.4524 5.27515 12.4692 5.2758 11.4718V5.83499C7.04763 5.99553 8.82217 5.56032 10.3468 4.5913C11.8715 5.56032 13.646 5.99553 15.4178 5.83499V11.4718Z" fill="#FD9800"/>
</svg>
