<svg width="19" height="22" viewBox="0 0 19 22" fill="none" xmlns="http://www.w3.org/2000/svg">
<path d="M15.1614 7.85305C15.1054 7.6998 15.0143 7.56828 14.8985 7.4734C14.7828 7.37852 14.647 7.32407 14.5066 7.31621H11.0591L12.015 3.07516C12.0455 2.94245 12.0498 2.80318 12.0276 2.66817C12.0054 2.53317 11.9573 2.40606 11.8871 2.29674C11.817 2.18846 11.7269 2.10071 11.6238 2.04023C11.5208 1.97974 11.4074 1.94812 11.2924 1.94779H6.02335C5.85342 1.94087 5.68651 2.00255 5.54983 2.12278C5.41315 2.243 5.31474 2.4147 5.27063 2.6099L3.25332 11.5573C3.22288 11.69 3.21858 11.8292 3.24078 11.9643C3.26297 12.0993 3.31105 12.2264 3.38129 12.3357C3.45218 12.4452 3.54344 12.5336 3.64792 12.5942C3.75239 12.6547 3.86724 12.6857 3.98347 12.6846H6.89652L5.53408 18.7152C5.48944 18.9096 5.50135 19.1163 5.56788 19.3017C5.63441 19.4871 5.75166 19.6404 5.90063 19.7367C6.0496 19.833 6.22156 19.8667 6.38865 19.8323C6.55575 19.7979 6.70817 19.6975 6.82124 19.5473L15.0259 8.81042C15.1236 8.68327 15.1884 8.5253 15.2124 8.35548C15.2365 8.18566 15.2188 8.01121 15.1614 7.85305ZM7.79226 15.6194L8.59767 12.0404C8.62812 11.9077 8.63241 11.7684 8.61022 11.6334C8.58803 11.4984 8.53995 11.3713 8.46971 11.262C8.39959 11.1537 8.30954 11.066 8.20646 11.0055C8.10338 10.945 7.99001 10.9134 7.87506 10.9131H4.98459L6.59542 3.73726H10.3064L9.3504 7.97832C9.31971 8.11347 9.31613 8.2553 9.33994 8.3924C9.36375 8.5295 9.4143 8.65805 9.48752 8.7677C9.56073 8.87736 9.65457 8.96506 9.76149 9.02376C9.86841 9.08246 9.98542 9.11052 10.1031 9.10569H12.7904L7.79226 15.6194Z" fill="#FD9800"/>
</svg>
