<svg width="20" height="20" viewBox="0 0 20 20" fill="none" xmlns="http://www.w3.org/2000/svg">
<g clip-path="url(#clip0_1_5117)">
<path d="M9.99999 1.66675V3.75008M9.99999 1.66675C5.39762 1.66675 1.66666 5.39771 1.66666 10.0001M9.99999 1.66675C14.6024 1.66675 18.3333 5.39771 18.3333 10.0001M9.99999 16.2501V18.3334M9.99999 18.3334C14.6024 18.3334 18.3333 14.6025 18.3333 10.0001M9.99999 18.3334C5.39762 18.3334 1.66666 14.6025 1.66666 10.0001M3.74999 10.0001H1.66666M18.3333 10.0001H16.25M15.8987 15.8988L14.4206 14.4207M4.10135 15.8988L5.58095 14.4192M4.10135 4.16675L5.54839 5.61379M15.8987 4.16675L11.2499 8.75008M11.6667 10.0001C11.6667 10.9206 10.9205 11.6667 9.99999 11.6667C9.07952 11.6667 8.33332 10.9206 8.33332 10.0001C8.33332 9.07961 9.07952 8.33342 9.99999 8.33342C10.9205 8.33342 11.6667 9.07961 11.6667 10.0001Z" stroke="black" stroke-width="1.5" stroke-linecap="round" stroke-linejoin="round"/>
</g>
<defs>
<clipPath id="clip0_1_5117">
<rect width="20" height="20" fill="white"/>
</clipPath>
</defs>
</svg>
